<svg width="190" height="40" viewBox="0 0 190 40" fill="none" xmlns="http://www.w3.org/2000/svg">
<rect width="190" height="40" rx="5" fill="#59A95E"/>
<path d="M39.5869 22.8872C39.5869 22.6382 39.5482 22.4168 39.4707 22.2231C39.3988 22.0295 39.2687 21.8524 39.0806 21.6919C38.8924 21.5314 38.6268 21.3765 38.2837 21.2271C37.9461 21.0721 37.5145 20.9144 36.9888 20.7539C36.4132 20.5768 35.882 20.3804 35.395 20.1646C34.9136 19.9432 34.493 19.6886 34.1333 19.4009C33.7736 19.1076 33.4941 18.7728 33.2949 18.3965C33.0957 18.0146 32.9961 17.5747 32.9961 17.0767C32.9961 16.5841 33.0985 16.1359 33.3032 15.7319C33.5135 15.328 33.8096 14.9793 34.1914 14.686C34.5788 14.3872 35.0353 14.1576 35.561 13.9971C36.0868 13.8311 36.6678 13.748 37.3042 13.748C38.2007 13.748 38.9727 13.9141 39.6201 14.2461C40.2731 14.5781 40.7739 15.0236 41.1226 15.5825C41.4767 16.1414 41.6538 16.7585 41.6538 17.4336H39.5869C39.5869 17.0352 39.5011 16.6838 39.3296 16.3794C39.1636 16.0695 38.909 15.826 38.5659 15.6489C38.2284 15.4718 37.7995 15.3833 37.2793 15.3833C36.7868 15.3833 36.3773 15.458 36.0508 15.6074C35.7243 15.7568 35.4808 15.9588 35.3203 16.2134C35.1598 16.4679 35.0796 16.7557 35.0796 17.0767C35.0796 17.3035 35.1322 17.5111 35.2373 17.6992C35.3424 17.8818 35.5029 18.0534 35.7188 18.2139C35.9346 18.3688 36.2057 18.5155 36.5322 18.6538C36.8587 18.7922 37.2433 18.925 37.686 19.0522C38.3556 19.2515 38.9395 19.4728 39.4375 19.7163C39.9355 19.9543 40.3506 20.2254 40.6826 20.5298C41.0146 20.8341 41.2637 21.18 41.4297 21.5674C41.5957 21.9492 41.6787 22.3836 41.6787 22.8706C41.6787 23.3797 41.5763 23.839 41.3716 24.2485C41.1668 24.6525 40.8735 24.9984 40.4917 25.2861C40.1154 25.5684 39.6616 25.7869 39.1304 25.9419C38.6047 26.0913 38.0181 26.166 37.3706 26.166C36.7896 26.166 36.2168 26.0885 35.6523 25.9336C35.0934 25.7786 34.5843 25.5435 34.125 25.228C33.6657 24.9071 33.3005 24.5086 33.0293 24.0327C32.7581 23.5513 32.6226 22.9896 32.6226 22.3477H34.7061C34.7061 22.7406 34.7725 23.0754 34.9053 23.3521C35.0436 23.6287 35.2345 23.8556 35.478 24.0327C35.7215 24.2043 36.0037 24.3315 36.3247 24.4146C36.6512 24.4976 36.9998 24.5391 37.3706 24.5391C37.8576 24.5391 38.2643 24.4699 38.5908 24.3315C38.9229 24.1932 39.1719 23.9995 39.3379 23.7505C39.5039 23.5015 39.5869 23.2137 39.5869 22.8872ZM47.1612 24.5723C47.4877 24.5723 47.781 24.5086 48.0411 24.3813C48.3067 24.2485 48.5198 24.0659 48.6803 23.8335C48.8463 23.6011 48.9376 23.3327 48.9542 23.0283H50.8385C50.8274 23.6094 50.6558 24.1379 50.3238 24.6138C49.9918 25.0897 49.5518 25.4688 49.004 25.751C48.4561 26.0277 47.8502 26.166 47.1861 26.166C46.4999 26.166 45.9023 26.0498 45.3931 25.8174C44.884 25.5794 44.4607 25.2529 44.1231 24.8379C43.7856 24.4229 43.531 23.9442 43.3595 23.4019C43.1934 22.8595 43.1104 22.2785 43.1104 21.6587V21.3682C43.1104 20.7484 43.1934 20.1673 43.3595 19.625C43.531 19.0771 43.7856 18.5957 44.1231 18.1807C44.4607 17.7656 44.884 17.4419 45.3931 17.2095C45.9023 16.9715 46.4971 16.8525 47.1778 16.8525C47.8972 16.8525 48.5281 16.9964 49.0704 17.2842C49.6127 17.5664 50.0388 17.9621 50.3487 18.4712C50.6641 18.9748 50.8274 19.5614 50.8385 20.231H48.9542C48.9376 19.8989 48.8546 19.6001 48.7052 19.3345C48.5613 19.0633 48.3565 18.8475 48.0909 18.687C47.8308 18.5265 47.5181 18.4463 47.1529 18.4463C46.7489 18.4463 46.4141 18.5293 46.1485 18.6953C45.8829 18.8558 45.6754 19.0771 45.526 19.3594C45.3765 19.6361 45.2686 19.9487 45.2022 20.2974C45.1414 20.6405 45.1109 20.9974 45.1109 21.3682V21.6587C45.1109 22.0295 45.1414 22.3892 45.2022 22.7378C45.2631 23.0864 45.3682 23.3991 45.5177 23.6758C45.6726 23.9469 45.8829 24.1655 46.1485 24.3315C46.4141 24.492 46.7517 24.5723 47.1612 24.5723ZM54.5197 13.25V26H52.5275V13.25H54.5197ZM54.1711 21.1772L53.5236 21.1689C53.5291 20.5492 53.6149 19.9764 53.7809 19.4507C53.9525 18.925 54.1904 18.4684 54.4948 18.0811C54.8047 17.6882 55.1754 17.3866 55.6071 17.1763C56.0387 16.9604 56.5174 16.8525 57.0431 16.8525C57.4858 16.8525 57.8843 16.9134 58.2384 17.0352C58.5981 17.1569 58.908 17.3534 59.1681 17.6245C59.4282 17.8901 59.6247 18.2388 59.7575 18.6704C59.8958 19.0965 59.965 19.6167 59.965 20.231V26H57.9562V20.2144C57.9562 19.7827 57.8926 19.4396 57.7653 19.1851C57.6435 18.9305 57.4637 18.7479 57.2257 18.6372C56.9878 18.521 56.6973 18.4629 56.3542 18.4629C55.9945 18.4629 55.6763 18.5348 55.3996 18.6787C55.1284 18.8226 54.9015 19.019 54.7189 19.2681C54.5363 19.5171 54.3979 19.8049 54.3039 20.1313C54.2153 20.4578 54.1711 20.8065 54.1711 21.1772ZM66.1199 26.166C65.4558 26.166 64.8554 26.0581 64.3186 25.8423C63.7873 25.6209 63.3336 25.3138 62.9573 24.9209C62.5865 24.528 62.3015 24.0659 62.1023 23.5347C61.9031 23.0034 61.8035 22.4307 61.8035 21.8164V21.4844C61.8035 20.7816 61.9058 20.1452 62.1106 19.5752C62.3153 19.0052 62.6003 18.5182 62.9656 18.1143C63.3308 17.7048 63.7624 17.3921 64.2605 17.1763C64.7585 16.9604 65.2981 16.8525 65.8791 16.8525C66.5211 16.8525 67.0828 16.9604 67.5642 17.1763C68.0456 17.3921 68.4441 17.6965 68.7595 18.0894C69.0805 18.4767 69.3184 18.9388 69.4734 19.4756C69.6339 20.0124 69.7141 20.6045 69.7141 21.252V22.1069H62.7746V20.6709H67.7385V20.5132C67.7274 20.1535 67.6555 19.8159 67.5227 19.5005C67.3954 19.1851 67.199 18.9305 66.9333 18.7368C66.6677 18.5431 66.3135 18.4463 65.8708 18.4463C65.5388 18.4463 65.2427 18.5182 64.9827 18.6621C64.7281 18.8005 64.515 19.0024 64.3435 19.2681C64.1719 19.5337 64.0391 19.8547 63.9451 20.231C63.8565 20.6017 63.8122 21.0195 63.8122 21.4844V21.8164C63.8122 22.2093 63.8648 22.5745 63.97 22.9121C64.0806 23.2441 64.2411 23.5347 64.4514 23.7837C64.6617 24.0327 64.9163 24.2292 65.2151 24.373C65.5139 24.5114 65.8542 24.5806 66.2361 24.5806C66.7175 24.5806 67.1464 24.4837 67.5227 24.29C67.899 24.0964 68.2255 23.8224 68.5022 23.4683L69.5564 24.4893C69.3627 24.7715 69.1109 25.0426 68.801 25.3027C68.4911 25.5573 68.1121 25.7648 67.6638 25.9253C67.2211 26.0858 66.7065 26.166 66.1199 26.166ZM76.9232 24.1406V13.25H78.932V26H77.1141L76.9232 24.1406ZM71.0794 21.6089V21.4346C71.0794 20.7539 71.1597 20.1341 71.3201 19.5752C71.4806 19.0107 71.713 18.5265 72.0174 18.1226C72.3218 17.7131 72.6925 17.4004 73.1297 17.1846C73.5669 16.9632 74.0594 16.8525 74.6072 16.8525C75.1496 16.8525 75.6255 16.9577 76.035 17.168C76.4445 17.3783 76.7931 17.6799 77.0809 18.0728C77.3686 18.4601 77.5983 18.925 77.7698 19.4673C77.9414 20.0041 78.0631 20.6017 78.1351 21.2603V21.8164C78.0631 22.4583 77.9414 23.0449 77.7698 23.5762C77.5983 24.1074 77.3686 24.5667 77.0809 24.9541C76.7931 25.3415 76.4417 25.6403 76.0267 25.8506C75.6172 26.0609 75.1385 26.166 74.5906 26.166C74.0483 26.166 73.5586 26.0526 73.1214 25.8257C72.6898 25.5988 72.3218 25.2806 72.0174 24.8711C71.713 24.4616 71.4806 23.9801 71.3201 23.4268C71.1597 22.8678 71.0794 22.2619 71.0794 21.6089ZM73.0799 21.4346V21.6089C73.0799 22.0184 73.1159 22.4002 73.1878 22.7544C73.2653 23.1086 73.3843 23.4212 73.5447 23.6924C73.7052 23.958 73.9127 24.1683 74.1673 24.3232C74.4274 24.4727 74.7373 24.5474 75.097 24.5474C75.5508 24.5474 75.9243 24.4478 76.2176 24.2485C76.5109 24.0493 76.7405 23.7809 76.9066 23.4434C77.0781 23.1003 77.1943 22.7184 77.2552 22.2979V20.7954C77.222 20.4689 77.1528 20.1646 77.0477 19.8823C76.9481 19.6001 76.8125 19.3538 76.6409 19.1436C76.4694 18.9277 76.2563 18.7617 76.0018 18.6455C75.7528 18.5238 75.4567 18.4629 75.1136 18.4629C74.7484 18.4629 74.4385 18.5404 74.1839 18.6953C73.9293 18.8503 73.7191 19.0633 73.553 19.3345C73.3926 19.6056 73.2736 19.9211 73.1961 20.2808C73.1186 20.6405 73.0799 21.0251 73.0799 21.4346ZM86.5976 23.8833V17.0186H88.6063V26H86.7138L86.5976 23.8833ZM86.8798 22.0156L87.5521 21.999C87.5521 22.6022 87.4857 23.1584 87.3529 23.6675C87.2201 24.1711 87.0154 24.611 86.7387 24.9873C86.462 25.3581 86.1078 25.6486 85.6762 25.8589C85.2445 26.0636 84.7271 26.166 84.1239 26.166C83.6867 26.166 83.2855 26.1024 82.9203 25.9751C82.5551 25.8478 82.2396 25.6514 81.974 25.3857C81.7139 25.1201 81.5119 24.7743 81.3681 24.3481C81.2242 23.922 81.1522 23.4129 81.1522 22.8208V17.0186H83.1527V22.8374C83.1527 23.1639 83.1915 23.4378 83.2689 23.6592C83.3464 23.875 83.4516 24.0493 83.5844 24.1821C83.7172 24.3149 83.8721 24.409 84.0492 24.4644C84.2263 24.5197 84.4145 24.5474 84.6137 24.5474C85.1837 24.5474 85.6319 24.4367 85.9584 24.2153C86.2904 23.9884 86.5256 23.6841 86.664 23.3022C86.8078 22.9204 86.8798 22.4915 86.8798 22.0156ZM92.9682 13.25V26H90.9595V13.25H92.9682ZM99.2891 26.166C98.6251 26.166 98.0246 26.0581 97.4879 25.8423C96.9566 25.6209 96.5028 25.3138 96.1265 24.9209C95.7558 24.528 95.4708 24.0659 95.2715 23.5347C95.0723 23.0034 94.9727 22.4307 94.9727 21.8164V21.4844C94.9727 20.7816 95.0751 20.1452 95.2798 19.5752C95.4846 19.0052 95.7696 18.5182 96.1348 18.1143C96.5001 17.7048 96.9317 17.3921 97.4297 17.1763C97.9278 16.9604 98.4673 16.8525 99.0484 16.8525C99.6903 16.8525 100.252 16.9604 100.733 17.1763C101.215 17.3921 101.613 17.6965 101.929 18.0894C102.25 18.4767 102.488 18.9388 102.643 19.4756C102.803 20.0124 102.883 20.6045 102.883 21.252V22.1069H95.9439V20.6709H100.908V20.5132C100.897 20.1535 100.825 19.8159 100.692 19.5005C100.565 19.1851 100.368 18.9305 100.103 18.7368C99.837 18.5431 99.4828 18.4463 99.0401 18.4463C98.7081 18.4463 98.412 18.5182 98.1519 18.6621C97.8974 18.8005 97.6843 19.0024 97.5128 19.2681C97.3412 19.5337 97.2084 19.8547 97.1143 20.231C97.0258 20.6017 96.9815 21.0195 96.9815 21.4844V21.8164C96.9815 22.2093 97.0341 22.5745 97.1392 22.9121C97.2499 23.2441 97.4104 23.5347 97.6207 23.7837C97.8309 24.0327 98.0855 24.2292 98.3843 24.373C98.6832 24.5114 99.0235 24.5806 99.4053 24.5806C99.8868 24.5806 100.316 24.4837 100.692 24.29C101.068 24.0964 101.395 23.8224 101.671 23.4683L102.726 24.4893C102.532 24.7715 102.28 25.0426 101.97 25.3027C101.66 25.5573 101.281 25.7648 100.833 25.9253C100.39 26.0858 99.8757 26.166 99.2891 26.166ZM117.127 24.3481V26H110.711V24.3481H117.127ZM111.3 13.9141V26H109.217V13.9141H111.3ZM116.289 18.9609V20.5879H110.711V18.9609H116.289ZM117.086 13.9141V15.5742H110.711V13.9141H117.086ZM123.838 23.5679C123.838 23.3687 123.788 23.1888 123.689 23.0283C123.589 22.8623 123.398 22.7129 123.116 22.5801C122.839 22.4473 122.43 22.3255 121.887 22.2148C121.412 22.1097 120.974 21.9852 120.576 21.8413C120.183 21.6919 119.846 21.512 119.563 21.3018C119.281 21.0915 119.062 20.8424 118.908 20.5547C118.753 20.2669 118.675 19.9349 118.675 19.5586C118.675 19.1934 118.755 18.8475 118.916 18.521C119.076 18.1945 119.306 17.9067 119.605 17.6577C119.904 17.4087 120.266 17.2122 120.692 17.0684C121.124 16.9245 121.605 16.8525 122.137 16.8525C122.889 16.8525 123.534 16.9798 124.071 17.2344C124.613 17.4834 125.028 17.8237 125.316 18.2554C125.603 18.6815 125.747 19.1629 125.747 19.6997H123.747C123.747 19.4618 123.686 19.2404 123.564 19.0356C123.448 18.8254 123.271 18.6566 123.033 18.5293C122.795 18.3965 122.496 18.3301 122.137 18.3301C121.793 18.3301 121.508 18.3854 121.282 18.4961C121.06 18.6012 120.894 18.7396 120.783 18.9111C120.678 19.0827 120.626 19.2708 120.626 19.4756C120.626 19.625 120.653 19.7606 120.709 19.8823C120.77 19.9985 120.869 20.1064 121.008 20.2061C121.146 20.3001 121.334 20.3887 121.572 20.4717C121.816 20.5547 122.12 20.6349 122.485 20.7124C123.171 20.8563 123.761 21.0417 124.253 21.2686C124.751 21.4899 125.133 21.7777 125.399 22.1318C125.664 22.4805 125.797 22.9232 125.797 23.46C125.797 23.8584 125.711 24.2236 125.54 24.5557C125.374 24.8822 125.13 25.1672 124.809 25.4106C124.488 25.6486 124.104 25.834 123.656 25.9668C123.213 26.0996 122.715 26.166 122.161 26.166C121.348 26.166 120.659 26.0221 120.095 25.7344C119.53 25.4411 119.101 25.0675 118.808 24.6138C118.52 24.1545 118.376 23.6785 118.376 23.186H120.31C120.332 23.5568 120.435 23.8529 120.617 24.0742C120.806 24.29 121.038 24.4478 121.315 24.5474C121.597 24.6414 121.887 24.6885 122.186 24.6885C122.546 24.6885 122.848 24.6414 123.091 24.5474C123.335 24.4478 123.52 24.3149 123.647 24.1489C123.775 23.9774 123.838 23.7837 123.838 23.5679ZM131.836 17.0186V18.4795H126.772V17.0186H131.836ZM128.233 14.8188H130.234V23.5181C130.234 23.7948 130.273 24.0078 130.35 24.1572C130.433 24.3011 130.546 24.3979 130.69 24.4478C130.834 24.4976 131.003 24.5225 131.197 24.5225C131.335 24.5225 131.468 24.5142 131.595 24.4976C131.722 24.481 131.825 24.4644 131.902 24.4478L131.911 25.9751C131.745 26.0249 131.551 26.0692 131.329 26.1079C131.114 26.1466 130.865 26.166 130.582 26.166C130.123 26.166 129.716 26.0858 129.362 25.9253C129.008 25.7593 128.731 25.4909 128.532 25.1201C128.333 24.7493 128.233 24.2568 128.233 23.6426V14.8188ZM135.691 17.0186V26H133.683V17.0186H135.691ZM133.55 14.6611C133.55 14.3568 133.649 14.105 133.849 13.9058C134.053 13.701 134.336 13.5986 134.695 13.5986C135.049 13.5986 135.329 13.701 135.534 13.9058C135.738 14.105 135.841 14.3568 135.841 14.6611C135.841 14.96 135.738 15.209 135.534 15.4082C135.329 15.6074 135.049 15.707 134.695 15.707C134.336 15.707 134.053 15.6074 133.849 15.4082C133.649 15.209 133.55 14.96 133.55 14.6611ZM140.053 18.8447V26H138.053V17.0186H139.937L140.053 18.8447ZM139.73 21.1772L139.049 21.1689C139.049 20.5492 139.126 19.9764 139.281 19.4507C139.436 18.925 139.663 18.4684 139.962 18.0811C140.261 17.6882 140.632 17.3866 141.074 17.1763C141.522 16.9604 142.04 16.8525 142.627 16.8525C143.036 16.8525 143.41 16.9134 143.747 17.0352C144.09 17.1514 144.386 17.3368 144.635 17.5913C144.89 17.8459 145.084 18.1724 145.216 18.5708C145.355 18.9692 145.424 19.4507 145.424 20.0151V26H143.423V20.1895C143.423 19.7523 143.357 19.4092 143.224 19.1602C143.097 18.9111 142.911 18.734 142.668 18.6289C142.43 18.5182 142.145 18.4629 141.813 18.4629C141.437 18.4629 141.116 18.5348 140.85 18.6787C140.59 18.8226 140.377 19.019 140.211 19.2681C140.045 19.5171 139.923 19.8049 139.846 20.1313C139.768 20.4578 139.73 20.8065 139.73 21.1772ZM145.299 20.646L144.361 20.8535C144.361 20.3112 144.436 19.7993 144.585 19.3179C144.74 18.8309 144.965 18.4048 145.258 18.0396C145.557 17.6688 145.925 17.3783 146.362 17.168C146.799 16.9577 147.3 16.8525 147.864 16.8525C148.324 16.8525 148.733 16.9162 149.093 17.0435C149.458 17.1652 149.768 17.3589 150.022 17.6245C150.277 17.8901 150.471 18.236 150.604 18.6621C150.736 19.0827 150.803 19.5918 150.803 20.1895V26H148.794V20.1812C148.794 19.7274 148.728 19.376 148.595 19.127C148.467 18.8779 148.285 18.7064 148.047 18.6123C147.809 18.5127 147.524 18.4629 147.192 18.4629C146.882 18.4629 146.608 18.521 146.37 18.6372C146.138 18.7479 145.941 18.9056 145.781 19.1104C145.62 19.3096 145.499 19.5392 145.416 19.7993C145.338 20.0594 145.299 20.3416 145.299 20.646ZM158.095 24.1987V19.9155C158.095 19.5946 158.037 19.3179 157.921 19.0854C157.804 18.853 157.627 18.6732 157.389 18.5459C157.157 18.4186 156.864 18.355 156.509 18.355C156.183 18.355 155.901 18.4103 155.663 18.521C155.425 18.6317 155.239 18.7811 155.107 18.9692C154.974 19.1574 154.907 19.3704 154.907 19.6084H152.915C152.915 19.2542 153.001 18.9111 153.172 18.5791C153.344 18.2471 153.593 17.951 153.92 17.6909C154.246 17.4308 154.636 17.2261 155.09 17.0767C155.544 16.9272 156.053 16.8525 156.617 16.8525C157.292 16.8525 157.89 16.966 158.41 17.1929C158.936 17.4198 159.348 17.7629 159.647 18.2222C159.951 18.6759 160.104 19.2459 160.104 19.9321V23.9248C160.104 24.3343 160.131 24.7023 160.187 25.0288C160.248 25.3498 160.333 25.6292 160.444 25.8672V26H158.394C158.3 25.7842 158.225 25.5103 158.17 25.1782C158.12 24.8407 158.095 24.5142 158.095 24.1987ZM158.385 20.5381L158.402 21.7749H156.966C156.595 21.7749 156.269 21.8109 155.986 21.8828C155.704 21.9492 155.469 22.0488 155.281 22.1816C155.093 22.3145 154.952 22.4749 154.858 22.6631C154.763 22.8512 154.716 23.0643 154.716 23.3022C154.716 23.5402 154.772 23.7588 154.882 23.958C154.993 24.1517 155.154 24.3039 155.364 24.4146C155.58 24.5252 155.84 24.5806 156.144 24.5806C156.554 24.5806 156.911 24.4976 157.215 24.3315C157.525 24.16 157.768 23.9525 157.945 23.709C158.123 23.46 158.217 23.2248 158.228 23.0034L158.875 23.8916C158.809 24.1185 158.695 24.362 158.535 24.6221C158.374 24.8822 158.164 25.1312 157.904 25.3691C157.649 25.6016 157.342 25.7925 156.983 25.9419C156.628 26.0913 156.219 26.166 155.754 26.166C155.167 26.166 154.644 26.0498 154.185 25.8174C153.726 25.5794 153.366 25.2612 153.106 24.8628C152.846 24.4588 152.716 24.0023 152.716 23.4932C152.716 23.0173 152.804 22.5967 152.982 22.2314C153.164 21.8607 153.43 21.5508 153.778 21.3018C154.133 21.0527 154.564 20.8646 155.073 20.7373C155.582 20.6045 156.164 20.5381 156.817 20.5381H158.385ZM166.483 17.0186V18.4795H161.419V17.0186H166.483ZM162.88 14.8188H164.881V23.5181C164.881 23.7948 164.919 24.0078 164.997 24.1572C165.08 24.3011 165.193 24.3979 165.337 24.4478C165.481 24.4976 165.65 24.5225 165.843 24.5225C165.982 24.5225 166.115 24.5142 166.242 24.4976C166.369 24.481 166.472 24.4644 166.549 24.4478L166.557 25.9751C166.391 26.0249 166.198 26.0692 165.976 26.1079C165.76 26.1466 165.511 26.166 165.229 26.166C164.77 26.166 164.363 26.0858 164.009 25.9253C163.655 25.7593 163.378 25.4909 163.179 25.1201C162.98 24.7493 162.88 24.2568 162.88 23.6426V14.8188ZM172.156 26.166C171.492 26.166 170.892 26.0581 170.355 25.8423C169.824 25.6209 169.37 25.3138 168.993 24.9209C168.623 24.528 168.338 24.0659 168.138 23.5347C167.939 23.0034 167.84 22.4307 167.84 21.8164V21.4844C167.84 20.7816 167.942 20.1452 168.147 19.5752C168.352 19.0052 168.637 18.5182 169.002 18.1143C169.367 17.7048 169.799 17.3921 170.297 17.1763C170.795 16.9604 171.334 16.8525 171.915 16.8525C172.557 16.8525 173.119 16.9604 173.6 17.1763C174.082 17.3921 174.48 17.6965 174.796 18.0894C175.117 18.4767 175.355 18.9388 175.51 19.4756C175.67 20.0124 175.75 20.6045 175.75 21.252V22.1069H168.811V20.6709H173.775V20.5132C173.764 20.1535 173.692 19.8159 173.559 19.5005C173.432 19.1851 173.235 18.9305 172.97 18.7368C172.704 18.5431 172.35 18.4463 171.907 18.4463C171.575 18.4463 171.279 18.5182 171.019 18.6621C170.764 18.8005 170.551 19.0024 170.38 19.2681C170.208 19.5337 170.075 19.8547 169.981 20.231C169.893 20.6017 169.848 21.0195 169.848 21.4844V21.8164C169.848 22.2093 169.901 22.5745 170.006 22.9121C170.117 23.2441 170.277 23.5347 170.488 23.7837C170.698 24.0327 170.952 24.2292 171.251 24.373C171.55 24.5114 171.89 24.5806 172.272 24.5806C172.754 24.5806 173.183 24.4837 173.559 24.29C173.935 24.0964 174.262 23.8224 174.538 23.4683L175.593 24.4893C175.399 24.7715 175.147 25.0426 174.837 25.3027C174.527 25.5573 174.148 25.7648 173.7 25.9253C173.257 26.0858 172.743 26.166 172.156 26.166Z" fill="white"/>
<path d="M13 16.6667H27M16.1111 12V13.5556M23.8889 12V13.5556M15.3333 19.7778H16.8889M15.3333 22.8889H16.8889M19.2222 19.7778H20.7778M19.2222 22.8889H20.7778M23.1111 19.7778H24.6667M23.1111 22.8889H24.6667M15.4889 26H24.5111C25.3823 26 25.8179 26 26.1507 25.8304C26.4433 25.6813 26.6813 25.4433 26.8304 25.1507C27 24.8179 27 24.3823 27 23.5111V16.0444C27 15.1732 27 14.7377 26.8304 14.4049C26.6813 14.1122 26.4433 13.8742 26.1507 13.7251C25.8179 13.5556 25.3823 13.5556 24.5111 13.5556H15.4889C14.6177 13.5556 14.1821 13.5556 13.8493 13.7251C13.5566 13.8742 13.3187 14.1122 13.1695 14.4049C13 14.7377 13 15.1732 13 16.0444V23.5111C13 24.3823 13 24.8179 13.1695 25.1507C13.3187 25.4433 13.5566 25.6813 13.8493 25.8304C14.1821 26 14.6177 26 15.4889 26Z" stroke="white" stroke-width="1.5" stroke-linecap="round" stroke-linejoin="round"/>
</svg>
