<svg width="190" height="40" viewBox="0 0 190 40" fill="none" xmlns="http://www.w3.org/2000/svg">
<rect width="190" height="40" rx="5" fill="#5CA85F"/>
<path d="M39.3672 22.0654H41.4424C41.376 22.8568 41.1546 23.5623 40.7783 24.1821C40.402 24.7964 39.8735 25.2806 39.1929 25.6348C38.5122 25.9889 37.6849 26.166 36.7109 26.166C35.9639 26.166 35.2915 26.0332 34.6938 25.7676C34.0962 25.4964 33.5843 25.1146 33.1582 24.6221C32.7321 24.124 32.4056 23.5236 32.1787 22.8208C31.9574 22.118 31.8467 21.3322 31.8467 20.4634V19.459C31.8467 18.5902 31.9601 17.8044 32.187 17.1016C32.4194 16.3988 32.7515 15.7983 33.1831 15.3003C33.6147 14.7967 34.1322 14.4121 34.7354 14.1465C35.3441 13.8809 36.0275 13.748 36.7856 13.748C37.7485 13.748 38.562 13.9251 39.2261 14.2793C39.8901 14.6335 40.4048 15.1232 40.77 15.7485C41.1408 16.3739 41.3677 17.0905 41.4507 17.8984H39.3755C39.3201 17.3783 39.1984 16.9328 39.0103 16.562C38.8276 16.1912 38.5565 15.909 38.1968 15.7153C37.8371 15.5161 37.3667 15.4165 36.7856 15.4165C36.3097 15.4165 35.8947 15.505 35.5405 15.6821C35.1864 15.8592 34.8903 16.1193 34.6523 16.4624C34.4144 16.8055 34.2345 17.2288 34.1128 17.7324C33.9966 18.2305 33.9385 18.8005 33.9385 19.4424V20.4634C33.9385 21.0721 33.991 21.6255 34.0962 22.1235C34.2069 22.616 34.3729 23.0394 34.5942 23.3936C34.8211 23.7477 35.1089 24.0216 35.4575 24.2153C35.8062 24.409 36.224 24.5059 36.7109 24.5059C37.3031 24.5059 37.7817 24.4118 38.147 24.2236C38.5177 24.0355 38.7972 23.7616 38.9854 23.4019C39.179 23.0366 39.3063 22.5911 39.3672 22.0654ZM42.9239 21.6089V21.418C42.9239 20.7705 43.018 20.1701 43.2061 19.6167C43.3943 19.0578 43.6654 18.5736 44.0196 18.1641C44.3793 17.749 44.8165 17.4281 45.3311 17.2012C45.8513 16.9688 46.4379 16.8525 47.0909 16.8525C47.7494 16.8525 48.336 16.9688 48.8507 17.2012C49.3708 17.4281 49.8108 17.749 50.1705 18.1641C50.5302 18.5736 50.8041 19.0578 50.9923 19.6167C51.1804 20.1701 51.2745 20.7705 51.2745 21.418V21.6089C51.2745 22.2563 51.1804 22.8568 50.9923 23.4102C50.8041 23.9635 50.5302 24.4478 50.1705 24.8628C49.8108 25.2723 49.3736 25.5933 48.859 25.8257C48.3443 26.0526 47.7605 26.166 47.1075 26.166C46.449 26.166 45.8596 26.0526 45.3394 25.8257C44.8248 25.5933 44.3876 25.2723 44.0279 24.8628C43.6682 24.4478 43.3943 23.9635 43.2061 23.4102C43.018 22.8568 42.9239 22.2563 42.9239 21.6089ZM44.9244 21.418V21.6089C44.9244 22.0129 44.9659 22.3947 45.0489 22.7544C45.1319 23.1141 45.262 23.4295 45.439 23.7007C45.6161 23.9718 45.843 24.1849 46.1197 24.3398C46.3964 24.4948 46.7257 24.5723 47.1075 24.5723C47.4783 24.5723 47.7992 24.4948 48.0704 24.3398C48.3471 24.1849 48.574 23.9718 48.7511 23.7007C48.9281 23.4295 49.0582 23.1141 49.1412 22.7544C49.2297 22.3947 49.274 22.0129 49.274 21.6089V21.418C49.274 21.0195 49.2297 20.6432 49.1412 20.2891C49.0582 19.9294 48.9254 19.6112 48.7428 19.3345C48.5657 19.0578 48.3388 18.842 48.0621 18.687C47.7909 18.5265 47.4672 18.4463 47.0909 18.4463C46.7146 18.4463 46.3881 18.5265 46.1114 18.687C45.8402 18.842 45.6161 19.0578 45.439 19.3345C45.262 19.6112 45.1319 19.9294 45.0489 20.2891C44.9659 20.6432 44.9244 21.0195 44.9244 21.418ZM55.1217 18.8447V26H53.1213V17.0186H55.0055L55.1217 18.8447ZM54.798 21.1772L54.1173 21.1689C54.1173 20.5492 54.1948 19.9764 54.3498 19.4507C54.5047 18.925 54.7316 18.4684 55.0304 18.0811C55.3293 17.6882 55.7 17.3866 56.1427 17.1763C56.591 16.9604 57.1084 16.8525 57.695 16.8525C58.1045 16.8525 58.478 16.9134 58.8156 17.0352C59.1587 17.1514 59.4547 17.3368 59.7038 17.5913C59.9583 17.8459 60.152 18.1724 60.2848 18.5708C60.4232 18.9692 60.4923 19.4507 60.4923 20.0151V26H58.4919V20.1895C58.4919 19.7523 58.4254 19.4092 58.2926 19.1602C58.1654 18.9111 57.98 18.734 57.7365 18.6289C57.4985 18.5182 57.2135 18.4629 56.8815 18.4629C56.5052 18.4629 56.1842 18.5348 55.9186 18.6787C55.6585 18.8226 55.4455 19.019 55.2795 19.2681C55.1134 19.5171 54.9917 19.8049 54.9142 20.1313C54.8367 20.4578 54.798 20.8065 54.798 21.1772ZM60.3678 20.646L59.4298 20.8535C59.4298 20.3112 59.5046 19.7993 59.654 19.3179C59.8089 18.8309 60.033 18.4048 60.3263 18.0396C60.6252 17.6688 60.9932 17.3783 61.4303 17.168C61.8675 16.9577 62.3683 16.8525 62.9328 16.8525C63.3921 16.8525 63.8016 16.9162 64.1613 17.0435C64.5265 17.1652 64.8364 17.3589 65.091 17.6245C65.3455 17.8901 65.5392 18.236 65.672 18.6621C65.8048 19.0827 65.8713 19.5918 65.8713 20.1895V26H63.8625V20.1812C63.8625 19.7274 63.7961 19.376 63.6632 19.127C63.536 18.8779 63.3533 18.7064 63.1154 18.6123C62.8774 18.5127 62.5924 18.4629 62.2604 18.4629C61.9505 18.4629 61.6766 18.521 61.4386 18.6372C61.2062 18.7479 61.0098 18.9056 60.8493 19.1104C60.6888 19.3096 60.5671 19.5392 60.484 19.7993C60.4066 20.0594 60.3678 20.3416 60.3678 20.646ZM70.1086 18.7451V29.4531H68.1081V17.0186H69.9509L70.1086 18.7451ZM75.9607 21.4263V21.6006C75.9607 22.2536 75.8832 22.8595 75.7283 23.4185C75.5788 23.9718 75.3547 24.4561 75.0559 24.8711C74.7626 25.2806 74.4001 25.5988 73.9685 25.8257C73.5369 26.0526 73.0388 26.166 72.4744 26.166C71.9154 26.166 71.4257 26.0636 71.0051 25.8589C70.5901 25.6486 70.2387 25.3525 69.9509 24.9707C69.6632 24.5889 69.4307 24.1406 69.2537 23.626C69.0821 23.1058 68.9604 22.5358 68.8884 21.916V21.2437C68.9604 20.5851 69.0821 19.9875 69.2537 19.4507C69.4307 18.9139 69.6632 18.4518 69.9509 18.0645C70.2387 17.6771 70.5901 17.3783 71.0051 17.168C71.4202 16.9577 71.9044 16.8525 72.4578 16.8525C73.0222 16.8525 73.523 16.9632 73.9602 17.1846C74.3974 17.4004 74.7654 17.7103 75.0642 18.1143C75.363 18.5127 75.5871 18.9941 75.7366 19.5586C75.886 20.1175 75.9607 20.7401 75.9607 21.4263ZM73.9602 21.6006V21.4263C73.9602 21.0112 73.9215 20.6266 73.844 20.2725C73.7665 19.9128 73.6448 19.5973 73.4787 19.3262C73.3127 19.055 73.0997 18.8447 72.8396 18.6953C72.585 18.5404 72.2779 18.4629 71.9182 18.4629C71.564 18.4629 71.2597 18.5238 71.0051 18.6455C70.7506 18.7617 70.5375 18.925 70.366 19.1353C70.1944 19.3455 70.0616 19.5918 69.9675 19.874C69.8734 20.1507 69.807 20.4523 69.7683 20.7788V22.3892C69.8347 22.7876 69.9481 23.1528 70.1086 23.4849C70.2691 23.8169 70.496 24.0825 70.7893 24.2817C71.0881 24.4754 71.47 24.5723 71.9348 24.5723C72.2945 24.5723 72.6016 24.4948 72.8562 24.3398C73.1107 24.1849 73.3183 23.9718 73.4787 23.7007C73.6448 23.424 73.7665 23.1058 73.844 22.7461C73.9215 22.3864 73.9602 22.0046 73.9602 21.6006ZM79.9739 13.25V26H77.9652V13.25H79.9739ZM86.2948 26.166C85.6308 26.166 85.0303 26.0581 84.4936 25.8423C83.9623 25.6209 83.5085 25.3138 83.1322 24.9209C82.7615 24.528 82.4765 24.0659 82.2772 23.5347C82.078 23.0034 81.9784 22.4307 81.9784 21.8164V21.4844C81.9784 20.7816 82.0808 20.1452 82.2855 19.5752C82.4903 19.0052 82.7753 18.5182 83.1405 18.1143C83.5058 17.7048 83.9374 17.3921 84.4354 17.1763C84.9335 16.9604 85.473 16.8525 86.0541 16.8525C86.696 16.8525 87.2577 16.9604 87.7392 17.1763C88.2206 17.3921 88.619 17.6965 88.9345 18.0894C89.2554 18.4767 89.4934 18.9388 89.6483 19.4756C89.8088 20.0124 89.8891 20.6045 89.8891 21.252V22.1069H82.9496V20.6709H87.9135V20.5132C87.9024 20.1535 87.8305 19.8159 87.6977 19.5005C87.5704 19.1851 87.3739 18.9305 87.1083 18.7368C86.8427 18.5431 86.4885 18.4463 86.0458 18.4463C85.7138 18.4463 85.4177 18.5182 85.1576 18.6621C84.9031 18.8005 84.69 19.0024 84.5185 19.2681C84.3469 19.5337 84.2141 19.8547 84.12 20.231C84.0315 20.6017 83.9872 21.0195 83.9872 21.4844V21.8164C83.9872 22.2093 84.0398 22.5745 84.1449 22.9121C84.2556 23.2441 84.4161 23.5347 84.6264 23.7837C84.8367 24.0327 85.0912 24.2292 85.39 24.373C85.6889 24.5114 86.0292 24.5806 86.411 24.5806C86.8925 24.5806 87.3214 24.4837 87.6977 24.29C88.074 24.0964 88.4005 23.8224 88.6771 23.4683L89.7313 24.4893C89.5377 24.7715 89.2859 25.0426 88.976 25.3027C88.6661 25.5573 88.287 25.7648 87.8388 25.9253C87.3961 26.0858 86.8814 26.166 86.2948 26.166ZM95.7368 17.0186V18.4795H90.6733V17.0186H95.7368ZM92.1343 14.8188H94.1347V23.5181C94.1347 23.7948 94.1735 24.0078 94.251 24.1572C94.334 24.3011 94.4474 24.3979 94.5913 24.4478C94.7352 24.4976 94.904 24.5225 95.0976 24.5225C95.236 24.5225 95.3688 24.5142 95.4961 24.4976C95.6234 24.481 95.7257 24.4644 95.8032 24.4478L95.8115 25.9751C95.6455 26.0249 95.4518 26.0692 95.2304 26.1079C95.0146 26.1466 94.7656 26.166 94.4834 26.166C94.0241 26.166 93.6173 26.0858 93.2632 25.9253C92.909 25.7593 92.6323 25.4909 92.4331 25.1201C92.2339 24.7493 92.1343 24.2568 92.1343 23.6426V14.8188ZM101.41 26.166C100.746 26.166 100.146 26.0581 99.6089 25.8423C99.0777 25.6209 98.6239 25.3138 98.2476 24.9209C97.8769 24.528 97.5919 24.0659 97.3926 23.5347C97.1934 23.0034 97.0938 22.4307 97.0938 21.8164V21.4844C97.0938 20.7816 97.1962 20.1452 97.4009 19.5752C97.6057 19.0052 97.8907 18.5182 98.2559 18.1143C98.6212 17.7048 99.0528 17.3921 99.5508 17.1763C100.049 16.9604 100.588 16.8525 101.169 16.8525C101.811 16.8525 102.373 16.9604 102.855 17.1763C103.336 17.3921 103.734 17.6965 104.05 18.0894C104.371 18.4767 104.609 18.9388 104.764 19.4756C104.924 20.0124 105.004 20.6045 105.004 21.252V22.1069H98.065V20.6709H103.029V20.5132C103.018 20.1535 102.946 19.8159 102.813 19.5005C102.686 19.1851 102.489 18.9305 102.224 18.7368C101.958 18.5431 101.604 18.4463 101.161 18.4463C100.829 18.4463 100.533 18.5182 100.273 18.6621C100.018 18.8005 99.8054 19.0024 99.6339 19.2681C99.4623 19.5337 99.3295 19.8547 99.2354 20.231C99.1469 20.6017 99.1026 21.0195 99.1026 21.4844V21.8164C99.1026 22.2093 99.1552 22.5745 99.2603 22.9121C99.371 23.2441 99.5315 23.5347 99.7418 23.7837C99.952 24.0327 100.207 24.2292 100.505 24.373C100.804 24.5114 101.145 24.5806 101.526 24.5806C102.008 24.5806 102.437 24.4837 102.813 24.29C103.189 24.0964 103.516 23.8224 103.793 23.4683L104.847 24.4893C104.653 24.7715 104.401 25.0426 104.091 25.3027C103.781 25.5573 103.402 25.7648 102.954 25.9253C102.511 26.0858 101.997 26.166 101.41 26.166ZM119.248 24.3481V26H112.832V24.3481H119.248ZM113.421 13.9141V26H111.338V13.9141H113.421ZM118.41 18.9609V20.5879H112.832V18.9609H118.41ZM119.207 13.9141V15.5742H112.832V13.9141H119.207ZM125.959 23.5679C125.959 23.3687 125.909 23.1888 125.81 23.0283C125.71 22.8623 125.519 22.7129 125.237 22.5801C124.96 22.4473 124.551 22.3255 124.009 22.2148C123.533 22.1097 123.096 21.9852 122.697 21.8413C122.304 21.6919 121.967 21.512 121.684 21.3018C121.402 21.0915 121.184 20.8424 121.029 20.5547C120.874 20.2669 120.796 19.9349 120.796 19.5586C120.796 19.1934 120.876 18.8475 121.037 18.521C121.197 18.1945 121.427 17.9067 121.726 17.6577C122.025 17.4087 122.387 17.2122 122.813 17.0684C123.245 16.9245 123.726 16.8525 124.258 16.8525C125.01 16.8525 125.655 16.9798 126.192 17.2344C126.734 17.4834 127.149 17.8237 127.437 18.2554C127.725 18.6815 127.868 19.1629 127.868 19.6997H125.868C125.868 19.4618 125.807 19.2404 125.685 19.0356C125.569 18.8254 125.392 18.6566 125.154 18.5293C124.916 18.3965 124.617 18.3301 124.258 18.3301C123.915 18.3301 123.63 18.3854 123.403 18.4961C123.181 18.6012 123.015 18.7396 122.905 18.9111C122.799 19.0827 122.747 19.2708 122.747 19.4756C122.747 19.625 122.775 19.7606 122.83 19.8823C122.891 19.9985 122.99 20.1064 123.129 20.2061C123.267 20.3001 123.455 20.3887 123.693 20.4717C123.937 20.5547 124.241 20.6349 124.606 20.7124C125.292 20.8563 125.882 21.0417 126.374 21.2686C126.872 21.4899 127.254 21.7777 127.52 22.1318C127.785 22.4805 127.918 22.9232 127.918 23.46C127.918 23.8584 127.832 24.2236 127.661 24.5557C127.495 24.8822 127.251 25.1672 126.93 25.4106C126.61 25.6486 126.225 25.834 125.777 25.9668C125.334 26.0996 124.836 26.166 124.283 26.166C123.469 26.166 122.78 26.0221 122.216 25.7344C121.651 25.4411 121.222 25.0675 120.929 24.6138C120.641 24.1545 120.497 23.6785 120.497 23.186H122.431C122.454 23.5568 122.556 23.8529 122.739 24.0742C122.927 24.29 123.159 24.4478 123.436 24.5474C123.718 24.6414 124.009 24.6885 124.307 24.6885C124.667 24.6885 124.969 24.6414 125.212 24.5474C125.456 24.4478 125.641 24.3149 125.768 24.1489C125.896 23.9774 125.959 23.7837 125.959 23.5679ZM133.957 17.0186V18.4795H128.893V17.0186H133.957ZM130.354 14.8188H132.355V23.5181C132.355 23.7948 132.394 24.0078 132.471 24.1572C132.554 24.3011 132.668 24.3979 132.811 24.4478C132.955 24.4976 133.124 24.5225 133.318 24.5225C133.456 24.5225 133.589 24.5142 133.716 24.4976C133.843 24.481 133.946 24.4644 134.023 24.4478L134.032 25.9751C133.866 26.0249 133.672 26.0692 133.451 26.1079C133.235 26.1466 132.986 26.166 132.703 26.166C132.244 26.166 131.837 26.0858 131.483 25.9253C131.129 25.7593 130.852 25.4909 130.653 25.1201C130.454 24.7493 130.354 24.2568 130.354 23.6426V14.8188ZM137.812 17.0186V26H135.804V17.0186H137.812ZM135.671 14.6611C135.671 14.3568 135.77 14.105 135.97 13.9058C136.174 13.701 136.457 13.5986 136.816 13.5986C137.171 13.5986 137.45 13.701 137.655 13.9058C137.859 14.105 137.962 14.3568 137.962 14.6611C137.962 14.96 137.859 15.209 137.655 15.4082C137.45 15.6074 137.171 15.707 136.816 15.707C136.457 15.707 136.174 15.6074 135.97 15.4082C135.77 15.209 135.671 14.96 135.671 14.6611ZM142.174 18.8447V26H140.174V17.0186H142.058L142.174 18.8447ZM141.851 21.1772L141.17 21.1689C141.17 20.5492 141.247 19.9764 141.402 19.4507C141.557 18.925 141.784 18.4684 142.083 18.0811C142.382 17.6882 142.753 17.3866 143.195 17.1763C143.644 16.9604 144.161 16.8525 144.748 16.8525C145.157 16.8525 145.531 16.9134 145.868 17.0352C146.211 17.1514 146.507 17.3368 146.756 17.5913C147.011 17.8459 147.205 18.1724 147.337 18.5708C147.476 18.9692 147.545 19.4507 147.545 20.0151V26H145.544V20.1895C145.544 19.7523 145.478 19.4092 145.345 19.1602C145.218 18.9111 145.033 18.734 144.789 18.6289C144.551 18.5182 144.266 18.4629 143.934 18.4629C143.558 18.4629 143.237 18.5348 142.971 18.6787C142.711 18.8226 142.498 19.019 142.332 19.2681C142.166 19.5171 142.044 19.8049 141.967 20.1313C141.889 20.4578 141.851 20.8065 141.851 21.1772ZM147.42 20.646L146.482 20.8535C146.482 20.3112 146.557 19.7993 146.707 19.3179C146.862 18.8309 147.086 18.4048 147.379 18.0396C147.678 17.6688 148.046 17.3783 148.483 17.168C148.92 16.9577 149.421 16.8525 149.985 16.8525C150.445 16.8525 150.854 16.9162 151.214 17.0435C151.579 17.1652 151.889 17.3589 152.144 17.6245C152.398 17.8901 152.592 18.236 152.725 18.6621C152.857 19.0827 152.924 19.5918 152.924 20.1895V26H150.915V20.1812C150.915 19.7274 150.849 19.376 150.716 19.127C150.589 18.8779 150.406 18.7064 150.168 18.6123C149.93 18.5127 149.645 18.4629 149.313 18.4629C149.003 18.4629 148.729 18.521 148.491 18.6372C148.259 18.7479 148.062 18.9056 147.902 19.1104C147.741 19.3096 147.62 19.5392 147.537 19.7993C147.459 20.0594 147.42 20.3416 147.42 20.646ZM160.216 24.1987V19.9155C160.216 19.5946 160.158 19.3179 160.042 19.0854C159.925 18.853 159.748 18.6732 159.51 18.5459C159.278 18.4186 158.985 18.355 158.63 18.355C158.304 18.355 158.022 18.4103 157.784 18.521C157.546 18.6317 157.36 18.7811 157.228 18.9692C157.095 19.1574 157.028 19.3704 157.028 19.6084H155.036C155.036 19.2542 155.122 18.9111 155.294 18.5791C155.465 18.2471 155.714 17.951 156.041 17.6909C156.367 17.4308 156.757 17.2261 157.211 17.0767C157.665 16.9272 158.174 16.8525 158.738 16.8525C159.414 16.8525 160.011 16.966 160.531 17.1929C161.057 17.4198 161.469 17.7629 161.768 18.2222C162.073 18.6759 162.225 19.2459 162.225 19.9321V23.9248C162.225 24.3343 162.252 24.7023 162.308 25.0288C162.369 25.3498 162.454 25.6292 162.565 25.8672V26H160.515C160.421 25.7842 160.346 25.5103 160.291 25.1782C160.241 24.8407 160.216 24.5142 160.216 24.1987ZM160.506 20.5381L160.523 21.7749H159.087C158.716 21.7749 158.39 21.8109 158.108 21.8828C157.825 21.9492 157.59 22.0488 157.402 22.1816C157.214 22.3145 157.073 22.4749 156.979 22.6631C156.885 22.8512 156.838 23.0643 156.838 23.3022C156.838 23.5402 156.893 23.7588 157.004 23.958C157.114 24.1517 157.275 24.3039 157.485 24.4146C157.701 24.5252 157.961 24.5806 158.265 24.5806C158.675 24.5806 159.032 24.4976 159.336 24.3315C159.646 24.16 159.889 23.9525 160.067 23.709C160.244 23.46 160.338 23.2248 160.349 23.0034L160.996 23.8916C160.93 24.1185 160.816 24.362 160.656 24.6221C160.495 24.8822 160.285 25.1312 160.025 25.3691C159.77 25.6016 159.463 25.7925 159.104 25.9419C158.749 26.0913 158.34 26.166 157.875 26.166C157.289 26.166 156.766 26.0498 156.306 25.8174C155.847 25.5794 155.487 25.2612 155.227 24.8628C154.967 24.4588 154.837 24.0023 154.837 23.4932C154.837 23.0173 154.926 22.5967 155.103 22.2314C155.285 21.8607 155.551 21.5508 155.9 21.3018C156.254 21.0527 156.685 20.8646 157.194 20.7373C157.704 20.6045 158.285 20.5381 158.938 20.5381H160.506ZM168.604 17.0186V18.4795H163.54V17.0186H168.604ZM165.001 14.8188H167.002V23.5181C167.002 23.7948 167.04 24.0078 167.118 24.1572C167.201 24.3011 167.314 24.3979 167.458 24.4478C167.602 24.4976 167.771 24.5225 167.965 24.5225C168.103 24.5225 168.236 24.5142 168.363 24.4976C168.49 24.481 168.593 24.4644 168.67 24.4478L168.678 25.9751C168.512 26.0249 168.319 26.0692 168.097 26.1079C167.882 26.1466 167.633 26.166 167.35 26.166C166.891 26.166 166.484 26.0858 166.13 25.9253C165.776 25.7593 165.499 25.4909 165.3 25.1201C165.101 24.7493 165.001 24.2568 165.001 23.6426V14.8188ZM174.277 26.166C173.613 26.166 173.013 26.0581 172.476 25.8423C171.945 25.6209 171.491 25.3138 171.115 24.9209C170.744 24.528 170.459 24.0659 170.26 23.5347C170.06 23.0034 169.961 22.4307 169.961 21.8164V21.4844C169.961 20.7816 170.063 20.1452 170.268 19.5752C170.473 19.0052 170.758 18.5182 171.123 18.1143C171.488 17.7048 171.92 17.3921 172.418 17.1763C172.916 16.9604 173.455 16.8525 174.036 16.8525C174.678 16.8525 175.24 16.9604 175.721 17.1763C176.203 17.3921 176.601 17.6965 176.917 18.0894C177.238 18.4767 177.476 18.9388 177.631 19.4756C177.791 20.0124 177.871 20.6045 177.871 21.252V22.1069H170.932V20.6709H175.896V20.5132C175.885 20.1535 175.813 19.8159 175.68 19.5005C175.553 19.1851 175.356 18.9305 175.091 18.7368C174.825 18.5431 174.471 18.4463 174.028 18.4463C173.696 18.4463 173.4 18.5182 173.14 18.6621C172.885 18.8005 172.672 19.0024 172.501 19.2681C172.329 19.5337 172.196 19.8547 172.102 20.231C172.014 20.6017 171.97 21.0195 171.97 21.4844V21.8164C171.97 22.2093 172.022 22.5745 172.127 22.9121C172.238 23.2441 172.398 23.5347 172.609 23.7837C172.819 24.0327 173.074 24.2292 173.372 24.373C173.671 24.5114 174.012 24.5806 174.393 24.5806C174.875 24.5806 175.304 24.4837 175.68 24.29C176.056 24.0964 176.383 23.8224 176.659 23.4683L177.714 24.4893C177.52 24.7715 177.268 25.0426 176.958 25.3027C176.648 25.5573 176.269 25.7648 175.821 25.9253C175.378 26.0858 174.864 26.166 174.277 26.166Z" fill="white"/>
<path d="M12 20.3472L16.3077 24.625L26 15" stroke="white" stroke-width="1.5" stroke-linecap="round" stroke-linejoin="round"/>
</svg>
