<svg width="190" height="40" viewBox="0 0 190 40" fill="none" xmlns="http://www.w3.org/2000/svg">
<rect width="190" height="40" rx="5" fill="#F4AC50"/>
<path d="M70.2285 13.9141H74.5034C75.422 13.9141 76.2051 14.0524 76.8525 14.3291C77.5 14.6058 77.9953 15.0153 78.3384 15.5576C78.687 16.0944 78.8613 16.7585 78.8613 17.5498C78.8613 18.153 78.7507 18.6842 78.5293 19.1436C78.3079 19.6029 77.9953 19.9902 77.5913 20.3057C77.1873 20.6156 76.7059 20.8563 76.147 21.0278L75.5161 21.335H71.6729L71.6562 19.6831H74.5366C75.0347 19.6831 75.4497 19.5946 75.7817 19.4175C76.1138 19.2404 76.3628 18.9997 76.5288 18.6953C76.7004 18.3854 76.7861 18.0368 76.7861 17.6494C76.7861 17.2288 76.7031 16.8636 76.5371 16.5537C76.3766 16.2383 76.1276 15.9976 75.79 15.8315C75.4525 15.66 75.0236 15.5742 74.5034 15.5742H72.312V26H70.2285V13.9141ZM77.1265 26L74.2876 20.5713L76.4707 20.563L79.3511 25.8921V26H77.1265ZM84.8668 26.166C84.2027 26.166 83.6023 26.0581 83.0655 25.8423C82.5343 25.6209 82.0805 25.3138 81.7042 24.9209C81.3334 24.528 81.0484 24.0659 80.8492 23.5347C80.65 23.0034 80.5504 22.4307 80.5504 21.8164V21.4844C80.5504 20.7816 80.6527 20.1452 80.8575 19.5752C81.0623 19.0052 81.3472 18.5182 81.7125 18.1143C82.0777 17.7048 82.5094 17.3921 83.0074 17.1763C83.5054 16.9604 84.045 16.8525 84.6261 16.8525C85.268 16.8525 85.8297 16.9604 86.3111 17.1763C86.7926 17.3921 87.191 17.6965 87.5064 18.0894C87.8274 18.4767 88.0653 18.9388 88.2203 19.4756C88.3808 20.0124 88.461 20.6045 88.461 21.252V22.1069H81.5216V20.6709H86.4854V20.5132C86.4744 20.1535 86.4024 19.8159 86.2696 19.5005C86.1423 19.1851 85.9459 18.9305 85.6803 18.7368C85.4146 18.5431 85.0605 18.4463 84.6178 18.4463C84.2857 18.4463 83.9897 18.5182 83.7296 18.6621C83.475 18.8005 83.262 19.0024 83.0904 19.2681C82.9189 19.5337 82.786 19.8547 82.692 20.231C82.6034 20.6017 82.5592 21.0195 82.5592 21.4844V21.8164C82.5592 22.2093 82.6117 22.5745 82.7169 22.9121C82.8276 23.2441 82.988 23.5347 83.1983 23.7837C83.4086 24.0327 83.6632 24.2292 83.962 24.373C84.2608 24.5114 84.6012 24.5806 84.983 24.5806C85.4644 24.5806 85.8933 24.4837 86.2696 24.29C86.6459 24.0964 86.9724 23.8224 87.2491 23.4683L88.3033 24.4893C88.1096 24.7715 87.8578 25.0426 87.5479 25.3027C87.238 25.5573 86.859 25.7648 86.4107 25.9253C85.968 26.0858 85.4534 26.166 84.8668 26.166ZM95.255 24.1987V19.9155C95.255 19.5946 95.1969 19.3179 95.0807 19.0854C94.9645 18.853 94.7874 18.6732 94.5495 18.5459C94.3171 18.4186 94.0238 18.355 93.6696 18.355C93.3431 18.355 93.0609 18.4103 92.8229 18.521C92.585 18.6317 92.3996 18.7811 92.2668 18.9692C92.1339 19.1574 92.0675 19.3704 92.0675 19.6084H90.0754C90.0754 19.2542 90.1611 18.9111 90.3327 18.5791C90.5042 18.2471 90.7532 17.951 91.0797 17.6909C91.4062 17.4308 91.7964 17.2261 92.2502 17.0767C92.7039 16.9272 93.213 16.8525 93.7775 16.8525C94.4526 16.8525 95.0503 16.966 95.5705 17.1929C96.0962 17.4198 96.5085 17.7629 96.8073 18.2222C97.1116 18.6759 97.2638 19.2459 97.2638 19.9321V23.9248C97.2638 24.3343 97.2915 24.7023 97.3468 25.0288C97.4077 25.3498 97.4935 25.6292 97.6042 25.8672V26H95.5539C95.4598 25.7842 95.3851 25.5103 95.3297 25.1782C95.2799 24.8407 95.255 24.5142 95.255 24.1987ZM95.5456 20.5381L95.5622 21.7749H94.1261C93.7554 21.7749 93.4289 21.8109 93.1466 21.8828C92.8644 21.9492 92.6292 22.0488 92.4411 22.1816C92.2529 22.3145 92.1118 22.4749 92.0177 22.6631C91.9237 22.8512 91.8766 23.0643 91.8766 23.3022C91.8766 23.5402 91.932 23.7588 92.0426 23.958C92.1533 24.1517 92.3138 24.3039 92.5241 24.4146C92.7399 24.5252 93 24.5806 93.3044 24.5806C93.7139 24.5806 94.0708 24.4976 94.3752 24.3315C94.6851 24.16 94.9285 23.9525 95.1056 23.709C95.2827 23.46 95.3768 23.2248 95.3879 23.0034L96.0353 23.8916C95.9689 24.1185 95.8555 24.362 95.695 24.6221C95.5345 24.8822 95.3242 25.1312 95.0641 25.3691C94.8096 25.6016 94.5024 25.7925 94.1427 25.9419C93.7886 26.0913 93.3791 26.166 92.9142 26.166C92.3276 26.166 91.8047 26.0498 91.3454 25.8174C90.8861 25.5794 90.5264 25.2612 90.2663 24.8628C90.0062 24.4588 89.8761 24.0023 89.8761 23.4932C89.8761 23.0173 89.9647 22.5967 90.1418 22.2314C90.3244 21.8607 90.59 21.5508 90.9386 21.3018C91.2928 21.0527 91.7244 20.8646 92.2336 20.7373C92.7427 20.6045 93.3237 20.5381 93.9767 20.5381H95.5456ZM104.564 23.5679C104.564 23.3687 104.514 23.1888 104.415 23.0283C104.315 22.8623 104.124 22.7129 103.842 22.5801C103.565 22.4473 103.156 22.3255 102.614 22.2148C102.138 22.1097 101.7 21.9852 101.302 21.8413C100.909 21.6919 100.572 21.512 100.289 21.3018C100.007 21.0915 99.7885 20.8424 99.6335 20.5547C99.4786 20.2669 99.4011 19.9349 99.4011 19.5586C99.4011 19.1934 99.4814 18.8475 99.6418 18.521C99.8023 18.1945 100.032 17.9067 100.331 17.6577C100.63 17.4087 100.992 17.2122 101.418 17.0684C101.85 16.9245 102.331 16.8525 102.863 16.8525C103.615 16.8525 104.26 16.9798 104.797 17.2344C105.339 17.4834 105.754 17.8237 106.042 18.2554C106.329 18.6815 106.473 19.1629 106.473 19.6997H104.473C104.473 19.4618 104.412 19.2404 104.29 19.0356C104.174 18.8254 103.997 18.6566 103.759 18.5293C103.521 18.3965 103.222 18.3301 102.863 18.3301C102.519 18.3301 102.234 18.3854 102.008 18.4961C101.786 18.6012 101.62 18.7396 101.51 18.9111C101.404 19.0827 101.352 19.2708 101.352 19.4756C101.352 19.625 101.379 19.7606 101.435 19.8823C101.496 19.9985 101.595 20.1064 101.734 20.2061C101.872 20.3001 102.06 20.3887 102.298 20.4717C102.542 20.5547 102.846 20.6349 103.211 20.7124C103.897 20.8563 104.487 21.0417 104.979 21.2686C105.477 21.4899 105.859 21.7777 106.125 22.1318C106.39 22.4805 106.523 22.9232 106.523 23.46C106.523 23.8584 106.437 24.2236 106.266 24.5557C106.1 24.8822 105.856 25.1672 105.535 25.4106C105.214 25.6486 104.83 25.834 104.382 25.9668C103.939 26.0996 103.441 26.166 102.887 26.166C102.074 26.166 101.385 26.0221 100.821 25.7344C100.256 25.4411 99.8272 25.0675 99.5339 24.6138C99.2462 24.1545 99.1023 23.6785 99.1023 23.186H101.036C101.059 23.5568 101.161 23.8529 101.343 24.0742C101.532 24.29 101.764 24.4478 102.041 24.5474C102.323 24.6414 102.614 24.6885 102.912 24.6885C103.272 24.6885 103.574 24.6414 103.817 24.5474C104.061 24.4478 104.246 24.3149 104.373 24.1489C104.501 23.9774 104.564 23.7837 104.564 23.5679ZM113.483 23.5679C113.483 23.3687 113.433 23.1888 113.334 23.0283C113.234 22.8623 113.043 22.7129 112.761 22.5801C112.484 22.4473 112.075 22.3255 111.533 22.2148C111.057 22.1097 110.619 21.9852 110.221 21.8413C109.828 21.6919 109.491 21.512 109.208 21.3018C108.926 21.0915 108.708 20.8424 108.553 20.5547C108.398 20.2669 108.32 19.9349 108.32 19.5586C108.32 19.1934 108.4 18.8475 108.561 18.521C108.721 18.1945 108.951 17.9067 109.25 17.6577C109.549 17.4087 109.911 17.2122 110.337 17.0684C110.769 16.9245 111.25 16.8525 111.782 16.8525C112.534 16.8525 113.179 16.9798 113.716 17.2344C114.258 17.4834 114.673 17.8237 114.961 18.2554C115.249 18.6815 115.392 19.1629 115.392 19.6997H113.392C113.392 19.4618 113.331 19.2404 113.209 19.0356C113.093 18.8254 112.916 18.6566 112.678 18.5293C112.44 18.3965 112.141 18.3301 111.782 18.3301C111.438 18.3301 111.153 18.3854 110.927 18.4961C110.705 18.6012 110.539 18.7396 110.429 18.9111C110.323 19.0827 110.271 19.2708 110.271 19.4756C110.271 19.625 110.298 19.7606 110.354 19.8823C110.415 19.9985 110.514 20.1064 110.653 20.2061C110.791 20.3001 110.979 20.3887 111.217 20.4717C111.461 20.5547 111.765 20.6349 112.13 20.7124C112.816 20.8563 113.406 21.0417 113.898 21.2686C114.396 21.4899 114.778 21.7777 115.044 22.1318C115.309 22.4805 115.442 22.9232 115.442 23.46C115.442 23.8584 115.356 24.2236 115.185 24.5557C115.019 24.8822 114.775 25.1672 114.454 25.4106C114.133 25.6486 113.749 25.834 113.301 25.9668C112.858 26.0996 112.36 26.166 111.806 26.166C110.993 26.166 110.304 26.0221 109.74 25.7344C109.175 25.4411 108.746 25.0675 108.453 24.6138C108.165 24.1545 108.021 23.6785 108.021 23.186H109.955C109.978 23.5568 110.08 23.8529 110.263 24.0742C110.451 24.29 110.683 24.4478 110.96 24.5474C111.242 24.6414 111.533 24.6885 111.831 24.6885C112.191 24.6885 112.493 24.6414 112.736 24.5474C112.98 24.4478 113.165 24.3149 113.292 24.1489C113.42 23.9774 113.483 23.7837 113.483 23.5679ZM119.505 17.0186V26H117.496V17.0186H119.505ZM117.364 14.6611C117.364 14.3568 117.463 14.105 117.662 13.9058C117.867 13.701 118.149 13.5986 118.509 13.5986C118.863 13.5986 119.143 13.701 119.348 13.9058C119.552 14.105 119.655 14.3568 119.655 14.6611C119.655 14.96 119.552 15.209 119.348 15.4082C119.143 15.6074 118.863 15.707 118.509 15.707C118.149 15.707 117.867 15.6074 117.662 15.4082C117.463 15.209 117.364 14.96 117.364 14.6611ZM127.619 17.0186H129.437V25.751C129.437 26.5589 129.265 27.2451 128.922 27.8096C128.579 28.374 128.101 28.8029 127.486 29.0962C126.872 29.395 126.161 29.5444 125.353 29.5444C125.01 29.5444 124.628 29.4946 124.208 29.395C123.792 29.2954 123.388 29.1349 122.996 28.9136C122.608 28.6978 122.284 28.4128 122.024 28.0586L122.962 26.8799C123.283 27.2617 123.638 27.5412 124.025 27.7183C124.412 27.8953 124.819 27.9839 125.245 27.9839C125.704 27.9839 126.095 27.8981 126.416 27.7266C126.742 27.5605 126.994 27.3143 127.171 26.9878C127.348 26.6613 127.437 26.2629 127.437 25.7925V19.0522L127.619 17.0186ZM121.518 21.6089V21.4346C121.518 20.7539 121.601 20.1341 121.767 19.5752C121.933 19.0107 122.171 18.5265 122.481 18.1226C122.791 17.7131 123.167 17.4004 123.61 17.1846C124.053 16.9632 124.553 16.8525 125.112 16.8525C125.693 16.8525 126.189 16.9577 126.598 17.168C127.013 17.3783 127.359 17.6799 127.636 18.0728C127.912 18.4601 128.128 18.925 128.283 19.4673C128.444 20.0041 128.563 20.6017 128.64 21.2603V21.8164C128.568 22.4583 128.446 23.0449 128.275 23.5762C128.103 24.1074 127.876 24.5667 127.594 24.9541C127.312 25.3415 126.963 25.6403 126.548 25.8506C126.139 26.0609 125.655 26.166 125.096 26.166C124.548 26.166 124.053 26.0526 123.61 25.8257C123.173 25.5988 122.796 25.2806 122.481 24.8711C122.171 24.4616 121.933 23.9801 121.767 23.4268C121.601 22.8678 121.518 22.2619 121.518 21.6089ZM123.519 21.4346V21.6089C123.519 22.0184 123.557 22.4002 123.635 22.7544C123.718 23.1086 123.842 23.4212 124.008 23.6924C124.18 23.958 124.396 24.1683 124.656 24.3232C124.921 24.4727 125.234 24.5474 125.594 24.5474C126.064 24.5474 126.449 24.4478 126.748 24.2485C127.052 24.0493 127.284 23.7809 127.445 23.4434C127.611 23.1003 127.727 22.7184 127.793 22.2979V20.7954C127.76 20.4689 127.691 20.1646 127.586 19.8823C127.486 19.6001 127.351 19.3538 127.179 19.1436C127.008 18.9277 126.792 18.7617 126.532 18.6455C126.272 18.5238 125.964 18.4629 125.61 18.4629C125.251 18.4629 124.938 18.5404 124.672 18.6953C124.407 18.8503 124.188 19.0633 124.017 19.3345C123.851 19.6056 123.726 19.9211 123.643 20.2808C123.56 20.6405 123.519 21.0251 123.519 21.4346ZM133.666 18.936V26H131.666V17.0186H133.55L133.666 18.936ZM133.309 21.1772L132.662 21.1689C132.667 20.5326 132.756 19.9487 132.927 19.4175C133.104 18.8862 133.348 18.4297 133.658 18.0479C133.973 17.666 134.35 17.3727 134.787 17.168C135.224 16.9577 135.711 16.8525 136.248 16.8525C136.679 16.8525 137.069 16.9134 137.418 17.0352C137.772 17.1514 138.074 17.3423 138.323 17.6079C138.577 17.8735 138.771 18.2194 138.904 18.6455C139.037 19.0661 139.103 19.5835 139.103 20.1978V26H137.094V20.1895C137.094 19.7578 137.031 19.4175 136.903 19.1685C136.782 18.9139 136.602 18.734 136.364 18.6289C136.131 18.5182 135.841 18.4629 135.492 18.4629C135.149 18.4629 134.842 18.5348 134.571 18.6787C134.3 18.8226 134.07 19.019 133.882 19.2681C133.699 19.5171 133.558 19.8049 133.459 20.1313C133.359 20.4578 133.309 20.8065 133.309 21.1772Z" fill="white"/>
<path d="M57 19.6709C57.8509 19.6709 58.6669 19.3194 59.2686 18.6939C59.8702 18.0684 60.2082 17.22 60.2082 16.3354C60.2082 15.4508 59.8702 14.6024 59.2686 13.9769C58.6669 13.3514 57.8509 13 57 13C56.1491 13 55.3331 13.3514 54.7314 13.9769C54.1298 14.6024 53.7918 15.4508 53.7918 16.3354C53.7918 17.22 54.1298 18.0684 54.7314 18.6939C55.3331 19.3194 56.1491 19.6709 57 19.6709ZM57 21.1363C52.7345 21.1363 50 23.5835 50 24.7751V27H64V24.7751C64 23.3341 61.4113 21.1363 57 21.1363Z" fill="white"/>
</svg>
