<svg width="190" height="40" viewBox="0 0 190 40" fill="none" xmlns="http://www.w3.org/2000/svg">
<rect width="190" height="40" rx="5" fill="#F6AE55"/>
<path d="M78.0752 13.9141H79.9346L83.4292 23.2358L86.9155 13.9141H88.7749L84.1597 26H82.6821L78.0752 13.9141ZM77.2285 13.9141H78.9966L79.3037 21.9824V26H77.2285V13.9141ZM87.8535 13.9141H89.6299V26H87.5464V21.9824L87.8535 13.9141ZM91.6925 21.6089V21.418C91.6925 20.7705 91.7865 20.1701 91.9747 19.6167C92.1628 19.0578 92.434 18.5736 92.7882 18.1641C93.1479 17.749 93.585 17.4281 94.0997 17.2012C94.6199 16.9688 95.2065 16.8525 95.8595 16.8525C96.518 16.8525 97.1046 16.9688 97.6192 17.2012C98.1394 17.4281 98.5793 17.749 98.939 18.1641C99.2987 18.5736 99.5727 19.0578 99.7608 19.6167C99.949 20.1701 100.043 20.7705 100.043 21.418V21.6089C100.043 22.2563 99.949 22.8568 99.7608 23.4102C99.5727 23.9635 99.2987 24.4478 98.939 24.8628C98.5793 25.2723 98.1422 25.5933 97.6275 25.8257C97.1129 26.0526 96.529 26.166 95.8761 26.166C95.2175 26.166 94.6282 26.0526 94.108 25.8257C93.5933 25.5933 93.1562 25.2723 92.7965 24.8628C92.4368 24.4478 92.1628 23.9635 91.9747 23.4102C91.7865 22.8568 91.6925 22.2563 91.6925 21.6089ZM93.6929 21.418V21.6089C93.6929 22.0129 93.7345 22.3947 93.8175 22.7544C93.9005 23.1141 94.0305 23.4295 94.2076 23.7007C94.3847 23.9718 94.6116 24.1849 94.8883 24.3398C95.165 24.4948 95.4942 24.5723 95.8761 24.5723C96.2468 24.5723 96.5678 24.4948 96.8389 24.3398C97.1156 24.1849 97.3425 23.9718 97.5196 23.7007C97.6967 23.4295 97.8267 23.1141 97.9097 22.7544C97.9983 22.3947 98.0426 22.0129 98.0426 21.6089V21.418C98.0426 21.0195 97.9983 20.6432 97.9097 20.2891C97.8267 19.9294 97.6939 19.6112 97.5113 19.3345C97.3342 19.0578 97.1073 18.842 96.8306 18.687C96.5595 18.5265 96.2358 18.4463 95.8595 18.4463C95.4832 18.4463 95.1567 18.5265 94.88 18.687C94.6088 18.842 94.3847 19.0578 94.2076 19.3345C94.0305 19.6112 93.9005 19.9294 93.8175 20.2891C93.7345 20.6432 93.6929 21.0195 93.6929 21.418ZM103.899 18.7285V26H101.898V17.0186H103.807L103.899 18.7285ZM106.646 16.9604L106.63 18.8198C106.508 18.7977 106.375 18.7811 106.231 18.77C106.093 18.759 105.954 18.7534 105.816 18.7534C105.473 18.7534 105.171 18.8032 104.911 18.9028C104.651 18.9969 104.433 19.1353 104.256 19.3179C104.084 19.495 103.951 19.7108 103.857 19.9653C103.763 20.2199 103.708 20.5049 103.691 20.8203L103.235 20.8535C103.235 20.2891 103.29 19.7661 103.401 19.2847C103.511 18.8032 103.677 18.3799 103.899 18.0146C104.125 17.6494 104.408 17.3644 104.745 17.1597C105.088 16.9549 105.484 16.8525 105.932 16.8525C106.054 16.8525 106.184 16.8636 106.322 16.8857C106.466 16.9079 106.574 16.9328 106.646 16.9604ZM111.863 26.166C111.199 26.166 110.599 26.0581 110.062 25.8423C109.531 25.6209 109.077 25.3138 108.7 24.9209C108.33 24.528 108.045 24.0659 107.845 23.5347C107.646 23.0034 107.547 22.4307 107.547 21.8164V21.4844C107.547 20.7816 107.649 20.1452 107.854 19.5752C108.059 19.0052 108.343 18.5182 108.709 18.1143C109.074 17.7048 109.506 17.3921 110.004 17.1763C110.502 16.9604 111.041 16.8525 111.622 16.8525C112.264 16.8525 112.826 16.9604 113.307 17.1763C113.789 17.3921 114.187 17.6965 114.503 18.0894C114.824 18.4767 115.062 18.9388 115.217 19.4756C115.377 20.0124 115.457 20.6045 115.457 21.252V22.1069H108.518V20.6709H113.482V20.5132C113.471 20.1535 113.399 19.8159 113.266 19.5005C113.139 19.1851 112.942 18.9305 112.677 18.7368C112.411 18.5431 112.057 18.4463 111.614 18.4463C111.282 18.4463 110.986 18.5182 110.726 18.6621C110.471 18.8005 110.258 19.0024 110.087 19.2681C109.915 19.5337 109.782 19.8547 109.688 20.231C109.6 20.6017 109.555 21.0195 109.555 21.4844V21.8164C109.555 22.2093 109.608 22.5745 109.713 22.9121C109.824 23.2441 109.984 23.5347 110.195 23.7837C110.405 24.0327 110.659 24.2292 110.958 24.373C111.257 24.5114 111.597 24.5806 111.979 24.5806C112.461 24.5806 112.89 24.4837 113.266 24.29C113.642 24.0964 113.969 23.8224 114.245 23.4683L115.3 24.4893C115.106 24.7715 114.854 25.0426 114.544 25.3027C114.234 25.5573 113.855 25.7648 113.407 25.9253C112.964 26.0858 112.45 26.166 111.863 26.166Z" fill="white"/>
<path d="M121.827 16H132.463C133.199 16 133.567 17.1257 133.046 17.7855L127.73 24.5241C127.407 24.9326 126.883 24.9326 126.56 24.5241L121.244 17.7855C120.723 17.1257 121.091 16 121.827 16Z" fill="white"/>
<path fill-rule="evenodd" clip-rule="evenodd" d="M63.3 27C62.9334 27 62.6207 26.7347 62.561 26.373C62.5061 26.0804 62.2954 25.8413 62.012 25.75C61.7811 25.6707 61.5553 25.5772 61.336 25.47C61.075 25.3365 60.7619 25.3565 60.52 25.522C60.2272 25.7325 59.8251 25.6999 59.57 25.445L58.578 24.453C58.311 24.186 58.2763 23.7651 58.496 23.458C58.6654 23.2105 58.6898 22.8914 58.56 22.621C58.4745 22.4332 58.399 22.2409 58.334 22.045C58.2409 21.7363 57.9838 21.5051 57.667 21.445C57.285 21.384 57.003 21.0559 57 20.669V19.428C56.998 18.9821 57.3201 18.6007 57.76 18.528C58.0938 18.4645 58.3725 18.2359 58.5 17.921C58.538 17.8323 58.578 17.7443 58.62 17.657C58.7896 17.3304 58.7662 16.9371 58.559 16.633C58.2999 16.2729 58.3397 15.7781 58.653 15.464L59.382 14.735C59.7416 14.3753 60.3086 14.3288 60.722 14.625L60.745 14.641C61.0537 14.8488 61.4465 14.8864 61.789 14.741C62.1554 14.6091 62.4255 14.2942 62.5 13.912L62.5101 13.878C62.5923 13.372 63.0293 13.0002 63.5421 13H64.4221C64.9485 12.9998 65.3978 13.3806 65.484 13.9L65.5 13.97C65.5707 14.3362 65.8268 14.6392 66.176 14.77C66.5126 14.9145 66.8997 14.8767 67.2021 14.67L67.252 14.634C67.6761 14.3283 68.2593 14.3753 68.629 14.745L69.3 15.417C69.6363 15.7552 69.6786 16.2869 69.4 16.674C69.1817 16.9975 69.1539 17.4132 69.327 17.763L69.3701 17.863C69.5102 18.2045 69.8134 18.452 70.176 18.521C70.6499 18.5983 70.9985 19.0069 71 19.487V20.6C70.9999 21.0234 70.6936 21.3846 70.276 21.454C69.9325 21.5199 69.6527 21.7686 69.547 22.102C69.5003 22.2353 69.4483 22.3687 69.391 22.502C69.2575 22.795 69.2872 23.1364 69.469 23.402C69.7089 23.7358 69.6717 24.1943 69.381 24.485L68.4501 25.417C68.1838 25.6832 67.7639 25.7175 67.4581 25.498C67.2027 25.3235 66.8719 25.3043 66.5981 25.448C66.4029 25.5447 66.2026 25.6305 65.9981 25.705C65.712 25.8037 65.5011 26.0485 65.4461 26.346C65.3877 26.7203 65.0668 26.9972 64.688 27H63.3Z" stroke="white" stroke-width="1.5" stroke-linecap="round" stroke-linejoin="round"/>
<path fill-rule="evenodd" clip-rule="evenodd" d="M66.333 20C66.333 21.2885 65.2885 22.333 64 22.333C62.7115 22.333 61.667 21.2885 61.667 20C61.667 18.7115 62.7115 17.667 64 17.667C65.2885 17.667 66.333 18.7115 66.333 20Z" stroke="white" stroke-width="1.5" stroke-linecap="round" stroke-linejoin="round"/>
</svg>
