<svg width="345" height="37" viewBox="0 0 345 37" fill="none" xmlns="http://www.w3.org/2000/svg">
<rect x="1" y="1" width="343" height="35" rx="6" fill="white"/>
<path d="M28.1111 24.2222C32.0385 24.2222 35.2222 21.0385 35.2222 17.1111C35.2222 13.1837 32.0385 10 28.1111 10C24.1837 10 21 13.1837 21 17.1111C21 21.0385 24.1837 24.2222 28.1111 24.2222Z" stroke="#ACADAE" stroke-width="2" stroke-linecap="round" stroke-linejoin="round"/>
<path d="M37.0005 25.9998L33.1338 22.1332" stroke="#ACADAE" stroke-width="2" stroke-linecap="round" stroke-linejoin="round"/>
<path d="M51.412 15.537C51.37 15.607 51.3233 15.6607 51.272 15.698C51.2253 15.7307 51.167 15.747 51.097 15.747C51.0177 15.747 50.9243 15.7073 50.817 15.628C50.7097 15.5487 50.5743 15.4623 50.411 15.369C50.2523 15.271 50.0587 15.1823 49.83 15.103C49.606 15.0237 49.333 14.984 49.011 14.984C48.7077 14.984 48.4393 15.026 48.206 15.11C47.9773 15.1893 47.7837 15.299 47.625 15.439C47.471 15.579 47.3543 15.7447 47.275 15.936C47.1957 16.1227 47.156 16.3257 47.156 16.545C47.156 16.825 47.2237 17.0583 47.359 17.245C47.499 17.427 47.681 17.5833 47.905 17.714C48.1337 17.8447 48.3903 17.959 48.675 18.057C48.9643 18.1503 49.2583 18.2483 49.557 18.351C49.8603 18.4537 50.1543 18.5703 50.439 18.701C50.7283 18.827 50.985 18.988 51.209 19.184C51.4377 19.38 51.6197 19.6203 51.755 19.905C51.895 20.1897 51.965 20.5397 51.965 20.955C51.965 21.3937 51.8903 21.8067 51.741 22.194C51.5917 22.5767 51.3723 22.9103 51.083 23.195C50.7983 23.4797 50.446 23.7037 50.026 23.867C49.6107 24.0303 49.137 24.112 48.605 24.112C47.9517 24.112 47.359 23.9953 46.827 23.762C46.295 23.524 45.84 23.2043 45.462 22.803L45.854 22.159C45.8913 22.1077 45.9357 22.0657 45.987 22.033C46.043 21.9957 46.1037 21.977 46.169 21.977C46.2297 21.977 46.2973 22.0027 46.372 22.054C46.4513 22.1007 46.54 22.1613 46.638 22.236C46.736 22.3107 46.848 22.3923 46.974 22.481C47.1 22.5697 47.2423 22.6513 47.401 22.726C47.5643 22.8007 47.7487 22.8637 47.954 22.915C48.1593 22.9617 48.3903 22.985 48.647 22.985C48.969 22.985 49.256 22.9407 49.508 22.852C49.76 22.7633 49.9723 22.6397 50.145 22.481C50.3223 22.3177 50.4577 22.124 50.551 21.9C50.6443 21.676 50.691 21.4263 50.691 21.151C50.691 20.8477 50.621 20.6003 50.481 20.409C50.3457 20.213 50.166 20.0497 49.942 19.919C49.718 19.7883 49.4613 19.6787 49.172 19.59C48.8827 19.4967 48.5887 19.4033 48.29 19.31C47.9913 19.212 47.6973 19.1 47.408 18.974C47.1187 18.848 46.862 18.6847 46.638 18.484C46.414 18.2833 46.232 18.0337 46.092 17.735C45.9567 17.4317 45.889 17.0583 45.889 16.615C45.889 16.2603 45.9567 15.9173 46.092 15.586C46.232 15.2547 46.4327 14.9607 46.694 14.704C46.96 14.4473 47.2843 14.242 47.667 14.088C48.0543 13.934 48.4977 13.857 48.997 13.857C49.557 13.857 50.0657 13.9457 50.523 14.123C50.985 14.3003 51.391 14.557 51.741 14.893L51.412 15.537ZM58.2935 19.681C58.2935 19.3917 58.2515 19.128 58.1675 18.89C58.0882 18.6473 57.9692 18.4397 57.8105 18.267C57.6565 18.0897 57.4675 17.9543 57.2435 17.861C57.0195 17.763 56.7652 17.714 56.4805 17.714C55.8832 17.714 55.4095 17.889 55.0595 18.239C54.7142 18.5843 54.4995 19.065 54.4155 19.681H58.2935ZM59.3015 23.006C59.1475 23.1927 58.9632 23.356 58.7485 23.496C58.5339 23.6313 58.3029 23.7433 58.0555 23.832C57.8129 23.9207 57.5609 23.986 57.2995 24.028C57.0382 24.0747 56.7792 24.098 56.5225 24.098C56.0325 24.098 55.5799 24.0163 55.1645 23.853C54.7539 23.685 54.3969 23.4423 54.0935 23.125C53.7949 22.803 53.5615 22.4063 53.3935 21.935C53.2255 21.4637 53.1415 20.9223 53.1415 20.311C53.1415 19.8163 53.2162 19.3543 53.3655 18.925C53.5195 18.4957 53.7389 18.1247 54.0235 17.812C54.3082 17.4947 54.6559 17.2473 55.0665 17.07C55.4772 16.888 55.9392 16.797 56.4525 16.797C56.8772 16.797 57.2692 16.8693 57.6285 17.014C57.9925 17.154 58.3052 17.3593 58.5665 17.63C58.8325 17.896 59.0402 18.2273 59.1895 18.624C59.3389 19.016 59.4135 19.464 59.4135 19.968C59.4135 20.164 59.3925 20.2947 59.3505 20.36C59.3085 20.4253 59.2292 20.458 59.1125 20.458H54.3735C54.3875 20.906 54.4482 21.2957 54.5555 21.627C54.6675 21.9583 54.8215 22.236 55.0175 22.46C55.2135 22.6793 55.4469 22.845 55.7175 22.957C55.9882 23.0643 56.2915 23.118 56.6275 23.118C56.9402 23.118 57.2085 23.083 57.4325 23.013C57.6612 22.9383 57.8572 22.859 58.0205 22.775C58.1839 22.691 58.3192 22.614 58.4265 22.544C58.5385 22.4693 58.6342 22.432 58.7135 22.432C58.8162 22.432 58.8955 22.4717 58.9515 22.551L59.3015 23.006ZM64.787 20.808C64.213 20.8267 63.723 20.8733 63.317 20.948C62.9157 21.018 62.5867 21.1113 62.33 21.228C62.078 21.3447 61.8937 21.4823 61.777 21.641C61.665 21.7997 61.609 21.977 61.609 22.173C61.609 22.3597 61.6394 22.5207 61.7 22.656C61.7607 22.7913 61.8424 22.9033 61.945 22.992C62.0524 23.076 62.176 23.139 62.316 23.181C62.4607 23.2183 62.6147 23.237 62.778 23.237C62.9974 23.237 63.198 23.216 63.38 23.174C63.562 23.1273 63.7324 23.062 63.891 22.978C64.0544 22.894 64.2084 22.7937 64.353 22.677C64.5024 22.5603 64.647 22.4273 64.787 22.278V20.808ZM60.762 17.91C61.154 17.532 61.5764 17.2497 62.029 17.063C62.4817 16.8763 62.9834 16.783 63.534 16.783C63.9307 16.783 64.283 16.8483 64.591 16.979C64.899 17.1097 65.158 17.2917 65.368 17.525C65.578 17.7583 65.7367 18.0407 65.844 18.372C65.9514 18.7033 66.005 19.0673 66.005 19.464V24H65.452C65.3307 24 65.2374 23.9813 65.172 23.944C65.1067 23.902 65.0554 23.8227 65.018 23.706L64.878 23.034C64.6914 23.2067 64.5094 23.3607 64.332 23.496C64.1547 23.6267 63.968 23.7387 63.772 23.832C63.576 23.9207 63.366 23.9883 63.142 24.035C62.9227 24.0863 62.6777 24.112 62.407 24.112C62.1317 24.112 61.8727 24.0747 61.63 24C61.3874 23.9207 61.175 23.804 60.993 23.65C60.8157 23.496 60.6734 23.3023 60.566 23.069C60.4634 22.831 60.412 22.551 60.412 22.229C60.412 21.949 60.489 21.6807 60.643 21.424C60.797 21.1627 61.0467 20.9317 61.392 20.731C61.7374 20.5303 62.1877 20.367 62.743 20.241C63.2984 20.1103 63.9797 20.0357 64.787 20.017V19.464C64.787 18.9133 64.668 18.498 64.43 18.218C64.192 17.9333 63.8444 17.791 63.387 17.791C63.079 17.791 62.82 17.8307 62.61 17.91C62.4047 17.9847 62.225 18.071 62.071 18.169C61.9217 18.2623 61.791 18.3487 61.679 18.428C61.5717 18.5027 61.4644 18.54 61.357 18.54C61.273 18.54 61.2007 18.519 61.14 18.477C61.0794 18.4303 61.028 18.3743 60.986 18.309L60.762 17.91ZM69.086 18.33C69.31 17.8447 69.5853 17.4667 69.912 17.196C70.2387 16.9207 70.6377 16.783 71.109 16.783C71.2583 16.783 71.4007 16.7993 71.536 16.832C71.676 16.8647 71.7997 16.916 71.907 16.986L71.816 17.917C71.788 18.0337 71.718 18.092 71.606 18.092C71.5407 18.092 71.445 18.078 71.319 18.05C71.193 18.022 71.0507 18.008 70.892 18.008C70.668 18.008 70.4673 18.0407 70.29 18.106C70.1173 18.1713 69.961 18.2693 69.821 18.4C69.6857 18.526 69.562 18.6847 69.45 18.876C69.3427 19.0627 69.2447 19.2773 69.156 19.52V24H67.903V16.909H68.617C68.7523 16.909 68.8457 16.9347 68.897 16.986C68.9483 17.0373 68.9833 17.126 69.002 17.252L69.086 18.33ZM77.6505 18.169C77.6132 18.2203 77.5758 18.26 77.5385 18.288C77.5012 18.316 77.4498 18.33 77.3845 18.33C77.3145 18.33 77.2375 18.302 77.1535 18.246C77.0695 18.1853 76.9645 18.12 76.8385 18.05C76.7172 17.98 76.5655 17.917 76.3835 17.861C76.2062 17.8003 75.9868 17.77 75.7255 17.77C75.3755 17.77 75.0675 17.833 74.8015 17.959C74.5355 18.0803 74.3115 18.2577 74.1295 18.491C73.9522 18.7243 73.8168 19.0067 73.7235 19.338C73.6348 19.6693 73.5905 20.0403 73.5905 20.451C73.5905 20.8803 73.6395 21.263 73.7375 21.599C73.8355 21.9303 73.9732 22.2103 74.1505 22.439C74.3325 22.663 74.5495 22.8357 74.8015 22.957C75.0582 23.0737 75.3452 23.132 75.6625 23.132C75.9658 23.132 76.2155 23.097 76.4115 23.027C76.6075 22.9523 76.7685 22.8707 76.8945 22.782C77.0252 22.6933 77.1325 22.614 77.2165 22.544C77.3052 22.4693 77.3915 22.432 77.4755 22.432C77.5782 22.432 77.6575 22.4717 77.7135 22.551L78.0635 23.006C77.9095 23.1973 77.7345 23.3607 77.5385 23.496C77.3425 23.6313 77.1302 23.7457 76.9015 23.839C76.6775 23.9277 76.4418 23.993 76.1945 24.035C75.9472 24.077 75.6952 24.098 75.4385 24.098C74.9952 24.098 74.5822 24.0163 74.1995 23.853C73.8215 23.6897 73.4925 23.454 73.2125 23.146C72.9325 22.8333 72.7132 22.4507 72.5545 21.998C72.3958 21.5453 72.3165 21.0297 72.3165 20.451C72.3165 19.9237 72.3888 19.436 72.5335 18.988C72.6828 18.54 72.8975 18.155 73.1775 17.833C73.4622 17.5063 73.8098 17.252 74.2205 17.07C74.6358 16.888 75.1118 16.797 75.6485 16.797C76.1478 16.797 76.5865 16.8787 76.9645 17.042C77.3472 17.2007 77.6855 17.427 77.9795 17.721L77.6505 18.169ZM80.6541 17.854C80.9574 17.532 81.2934 17.2753 81.6621 17.084C82.0307 16.8927 82.4554 16.797 82.9361 16.797C83.3234 16.797 83.6641 16.8623 83.9581 16.993C84.2567 17.119 84.5041 17.301 84.7001 17.539C84.9007 17.7723 85.0524 18.0547 85.1551 18.386C85.2577 18.7173 85.3091 19.0837 85.3091 19.485V24H84.0561V19.485C84.0561 18.9483 83.9324 18.533 83.6851 18.239C83.4424 17.9403 83.0714 17.791 82.5721 17.791C82.2034 17.791 81.8581 17.8797 81.5361 18.057C81.2187 18.2343 80.9247 18.4747 80.6541 18.778V24H79.4011V13.689H80.6541V17.854Z" fill="#323C47"/>
<rect x="0.5" y="0.5" width="344" height="36" rx="6.5" stroke="#ACADAE" stroke-opacity="0.5"/>
</svg>
