<svg xmlns="http://www.w3.org/2000/svg" viewBox="0 0 64 64"><title>Artboard-18</title><g id="Invoice_biil" data-name="Invoice biil"><path d="M34,9.0373a2.3643,2.3643,0,0,0-.2061,4.6306L34,13.7194Z" style="fill:#930027"/><path d="M38,18.6308a2.3666,2.3666,0,0,0-1.7939-2.2988L36,16.2806v4.6821A2.3666,2.3666,0,0,0,38,18.6308Z" style="fill:#930027"/><path d="M51,0H11a4,4,0,0,1,4,4V63a1,1,0,0,0,1.7246.6894l3.0811-3.2387,3.0815,3.2387A1.0009,1.0009,0,0,0,23.6118,64h.0005a1.0013,1.0013,0,0,0,.7246-.3111l3.0747-3.2368,3.0738,3.2364a1,1,0,0,0,1.45,0l3.0732-3.2363,3.0732,3.2364a1,1,0,0,0,1.45,0l3.0752-3.2368,3.0733,3.2364a1.0007,1.0007,0,0,0,1.4512,0l3.0722-3.2358,3.07,3.2359A1,1,0,0,0,55,63V4A4,4,0,0,0,51,0ZM44,14h3a1,1,0,0,1,0,2H44a1,1,0,0,1,0-2ZM30,18a1,1,0,0,1,2,0v.6308a2.3666,2.3666,0,0,0,2,2.3319V15.7809l-.69-.1725A4.3567,4.3567,0,0,1,34,7.0373V6a1,1,0,0,1,2,0V7.0373a4.36,4.36,0,0,1,4,4.3318V12a1,1,0,0,1-2,0v-.6309a2.3665,2.3665,0,0,0-2-2.3318v5.1818l.69.1725a4.3567,4.3567,0,0,1-.69,8.571V24a1,1,0,0,1-2,0V22.9626a4.36,4.36,0,0,1-4-4.3318Zm-7-4h3a1,1,0,0,1,0,2H23a1,1,0,0,1,0-2ZM42,55H22a1,1,0,0,1,0-2H42a1,1,0,0,1,0,2Zm0-5H22a1,1,0,0,1,0-2H42a1,1,0,0,1,0,2Zm0-5H22a1,1,0,0,1,0-2H42a1,1,0,0,1,0,2Zm0-5H22a1,1,0,0,1,0-2H42a1,1,0,0,1,0,2Zm0-5H22a1,1,0,0,1,0-2H42a1,1,0,0,1,0,2Zm6,20H46a1,1,0,0,1,0-2h2a1,1,0,0,1,0,2Zm0-5H46a1,1,0,0,1,0-2h2a1,1,0,0,1,0,2Zm0-5H46a1,1,0,0,1,0-2h2a1,1,0,0,1,0,2Zm0-5H46a1,1,0,0,1,0-2h2a1,1,0,0,1,0,2Zm0-5H46a1,1,0,0,1,0-2h2a1,1,0,0,1,0,2Zm0-5H22a1,1,0,0,1,0-2H48a1,1,0,0,1,0,2Z" style="fill:#930027"/><path d="M11,2A2,2,0,0,0,9,4V37a1,1,0,0,0,1,1h3V4A2,2,0,0,0,11,2Z" style="fill:#930027"/></g></svg>