<svg width="13" height="13" viewBox="0 0 13 13" fill="none" xmlns="http://www.w3.org/2000/svg">
<path d="M2.44075 11.884L1.3 3.9H11.7L10.5592 11.884C10.515 12.1937 10.3604 12.4771 10.124 12.6821C9.88761 12.8872 9.58517 13 9.27225 13H3.72775C3.41482 13 3.11239 12.8872 2.87598 12.6821C2.63956 12.4771 2.48503 12.1937 2.44075 11.884ZM12.35 1.3H9.1V0.65C9.1 0.477609 9.03152 0.312279 8.90962 0.190381C8.78772 0.0684819 8.62239 0 8.45 0H4.55C4.37761 0 4.21228 0.0684819 4.09038 0.190381C3.96848 0.312279 3.9 0.477609 3.9 0.65V1.3H0.65C0.477609 1.3 0.312279 1.36848 0.190381 1.49038C0.0684819 1.61228 0 1.77761 0 1.95C0 2.12239 0.0684819 2.28772 0.190381 2.40962C0.312279 2.53152 0.477609 2.6 0.65 2.6H12.35C12.5224 2.6 12.6877 2.53152 12.8096 2.40962C12.9315 2.28772 13 2.12239 13 1.95C13 1.77761 12.9315 1.61228 12.8096 1.49038C12.6877 1.36848 12.5224 1.3 12.35 1.3Z" fill="#FF0000"/>
</svg>