<svg width="30" height="30" viewBox="0 0 30 30" fill="none" xmlns="http://www.w3.org/2000/svg">
<path d="M30 15C30 17.9667 29.1203 20.8668 27.472 23.3335C25.8238 25.8003 23.4811 27.7229 20.7403 28.8582C17.9994 29.9935 14.9834 30.2906 12.0736 29.7118C9.16394 29.133 6.49119 27.7044 4.3934 25.6066C2.29562 23.5088 0.867006 20.8361 0.288227 17.9263C-0.290551 15.0166 0.00649925 12.0006 1.14181 9.25975C2.27713 6.51886 4.19972 4.17618 6.66645 2.52796C9.13319 0.879734 12.0333 0 15 0C16.9698 0 18.9204 0.387986 20.7403 1.14181C22.5601 1.89563 24.2137 3.00052 25.6066 4.3934C26.9995 5.78628 28.1044 7.43986 28.8582 9.25975C29.612 11.0796 30 13.0302 30 15ZM21.8814 6.10648C21.8809 5.94734 21.8175 5.79486 21.7049 5.68234C21.5924 5.56981 21.4399 5.50637 21.2808 5.50587H8.70974C8.55061 5.50637 8.39813 5.56981 8.2856 5.68234C8.17308 5.79486 8.10964 5.94734 8.10914 6.10648V23.8537C8.11014 24.0125 8.17379 24.1645 8.28627 24.2766C8.39874 24.3888 8.55093 24.4519 8.70974 24.4524H21.2789C21.4377 24.4519 21.5899 24.3888 21.7024 24.2766C21.8148 24.1645 21.8785 24.0125 21.8795 23.8537L21.8814 6.10648ZM9.6116 7.00644H20.3808V10.6347H9.6116V7.00644ZM11.8473 13.6946C11.8475 13.5566 11.8206 13.4199 11.7679 13.2923C11.7153 13.1648 11.638 13.0488 11.5405 12.9511C11.443 12.8535 11.3272 12.776 11.1998 12.7231C11.0723 12.6703 10.9357 12.643 10.7977 12.643H10.7939C10.5155 12.643 10.2485 12.7536 10.0517 12.9505C9.85481 13.1473 9.74423 13.4143 9.74423 13.6927C9.74423 13.9711 9.85481 14.238 10.0517 14.4349C10.2485 14.6317 10.5155 14.7423 10.7939 14.7423H10.7977C11.076 14.7423 11.343 14.6317 11.5399 14.4349C11.7367 14.238 11.8473 13.9711 11.8473 13.6927V13.6946ZM11.8473 17.2186C11.8475 17.0806 11.8206 16.9439 11.7679 16.8164C11.7153 16.6888 11.638 16.5729 11.5405 16.4752C11.443 16.3775 11.3272 16.3001 11.1998 16.2472C11.0723 16.1943 10.9357 16.1671 10.7977 16.1671H10.7939C10.5155 16.1671 10.2485 16.2777 10.0517 16.4745C9.85481 16.6714 9.74423 16.9384 9.74423 17.2167C9.74423 17.4951 9.85481 17.7621 10.0517 17.959C10.2485 18.1558 10.5155 18.2664 10.7939 18.2664H10.7977C11.076 18.2664 11.343 18.1558 11.5399 17.959C11.7367 17.7621 11.8473 17.497 11.8473 17.2186ZM11.8473 20.7427C11.8475 20.6047 11.8206 20.468 11.7679 20.3404C11.7153 20.2129 11.638 20.0969 11.5405 19.9993C11.443 19.9016 11.3272 19.8241 11.1998 19.7712C11.0723 19.7184 10.9357 19.6912 10.7977 19.6912H10.7939C10.5155 19.6912 10.2485 19.8018 10.0517 19.9986C9.85481 20.1954 9.74423 20.4624 9.74423 20.7408C9.74423 21.0192 9.85481 21.2862 10.0517 21.483C10.2485 21.6799 10.5155 21.7904 10.7939 21.7904H10.7977C11.076 21.7904 11.343 21.6799 11.5399 21.483C11.7367 21.2862 11.8473 21.0192 11.8473 20.7408V20.7427ZM15.9132 17.2186C15.9135 17.0806 15.8865 16.9439 15.8339 16.8164C15.7812 16.6888 15.704 16.5729 15.6065 16.4752C15.509 16.3775 15.3932 16.3001 15.2657 16.2472C15.1382 16.1943 15.0016 16.1671 14.8636 16.1671H14.8598C14.5814 16.1671 14.3144 16.2777 14.1176 16.4745C13.9207 16.6714 13.8102 16.9384 13.8102 17.2167C13.8102 17.4951 13.9207 17.7621 14.1176 17.959C14.3144 18.1558 14.5814 18.2664 14.8598 18.2664H14.8636C15.142 18.2664 15.409 18.1558 15.6058 17.959C15.8026 17.7621 15.9132 17.497 15.9132 17.2186ZM15.9132 20.7427C15.9135 20.6047 15.8865 20.468 15.8339 20.3404C15.7812 20.2129 15.704 20.0969 15.6065 19.9993C15.509 19.9016 15.3932 19.8241 15.2657 19.7712C15.1382 19.7184 15.0016 19.6912 14.8636 19.6912H14.8598C14.5814 19.6912 14.3144 19.8018 14.1176 19.9986C13.9207 20.1954 13.8102 20.4624 13.8102 20.7408C13.8102 21.0192 13.9207 21.2862 14.1176 21.483C14.3144 21.6799 14.5814 21.7904 14.8598 21.7904H14.8636C15.142 21.7904 15.409 21.6799 15.6058 21.483C15.8026 21.2862 15.9132 21.0192 15.9132 20.7408V20.7427ZM15.9776 13.6946C15.9779 13.5566 15.9509 13.4199 15.8983 13.2923C15.8457 13.1648 15.7684 13.0488 15.6709 12.9511C15.5734 12.8535 15.4576 12.776 15.3301 12.7231C15.2027 12.6703 15.066 12.643 14.928 12.643H14.9242C14.6458 12.643 14.3789 12.7536 14.182 12.9505C13.9852 13.1473 13.8746 13.4143 13.8746 13.6927C13.8746 13.9711 13.9852 14.238 14.182 14.4349C14.3789 14.6317 14.6458 14.7423 14.9242 14.7423H14.9299C15.2083 14.7423 15.4753 14.6317 15.6721 14.4349C15.869 14.238 15.9795 13.9711 15.9795 13.6927L15.9776 13.6946ZM20.108 13.6946C20.1082 13.5564 20.0812 13.4196 20.0285 13.2919C19.9757 13.1642 19.8983 13.0482 19.8006 12.9505C19.7029 12.8528 19.5869 12.7753 19.4592 12.7226C19.3315 12.6698 19.1946 12.6428 19.0565 12.643H19.0527C18.9148 12.643 18.7783 12.6702 18.651 12.7229C18.5236 12.7757 18.4079 12.853 18.3105 12.9505C18.213 13.0479 18.1357 13.1637 18.0829 13.291C18.0302 13.4184 18.003 13.5548 18.003 13.6927C18.003 13.8305 18.0302 13.967 18.0829 14.0944C18.1357 14.2217 18.213 14.3374 18.3105 14.4349C18.4079 14.5324 18.5236 14.6097 18.651 14.6624C18.7783 14.7152 18.9148 14.7423 19.0527 14.7423H19.0565C19.3348 14.7423 19.6018 14.6317 19.7987 14.4349C19.9955 14.238 20.1061 13.9711 20.1061 13.6927L20.108 13.6946ZM20.108 20.7427V17.1542C20.108 16.8753 19.9972 16.6079 19.8 16.4107C19.6028 16.2135 19.3353 16.1027 19.0565 16.1027C18.7776 16.1027 18.5101 16.2135 18.3129 16.4107C18.1157 16.6079 18.0049 16.8753 18.0049 17.1542V20.7408C18.0049 21.0197 18.1157 21.2872 18.3129 21.4844C18.5101 21.6816 18.7776 21.7923 19.0565 21.7923C19.3353 21.7923 19.6028 21.6816 19.8 21.4844C19.9972 21.2872 20.108 21.0197 20.108 20.7408V20.7427Z" fill="#930027"/>
</svg>
