<svg width="22" height="22" viewBox="0 0 22 22" fill="none" xmlns="http://www.w3.org/2000/svg">
<path d="M1 10.5C1 6.729 1 4.843 2.172 3.672C3.343 2.5 5.229 2.5 9 2.5H13C16.771 2.5 18.657 2.5 19.828 3.672C21 4.843 21 6.729 21 10.5V12.5C21 16.271 21 18.157 19.828 19.328C18.657 20.5 16.771 20.5 13 20.5H9C5.229 20.5 3.343 20.5 2.172 19.328C1 18.157 1 16.271 1 12.5V10.5Z" stroke="white" stroke-width="1.5"/>
<path d="M6 2.5V1M16 2.5V1M1.5 7.5H20.5" stroke="white" stroke-width="1.5" stroke-linecap="round"/>
<path d="M17 15.5C17 15.7652 16.8946 16.0196 16.7071 16.2071C16.5196 16.3946 16.2652 16.5 16 16.5C15.7348 16.5 15.4804 16.3946 15.2929 16.2071C15.1054 16.0196 15 15.7652 15 15.5C15 15.2348 15.1054 14.9804 15.2929 14.7929C15.4804 14.6054 15.7348 14.5 16 14.5C16.2652 14.5 16.5196 14.6054 16.7071 14.7929C16.8946 14.9804 17 15.2348 17 15.5ZM17 11.5C17 11.7652 16.8946 12.0196 16.7071 12.2071C16.5196 12.3946 16.2652 12.5 16 12.5C15.7348 12.5 15.4804 12.3946 15.2929 12.2071C15.1054 12.0196 15 11.7652 15 11.5C15 11.2348 15.1054 10.9804 15.2929 10.7929C15.4804 10.6054 15.7348 10.5 16 10.5C16.2652 10.5 16.5196 10.6054 16.7071 10.7929C16.8946 10.9804 17 11.2348 17 11.5ZM12 15.5C12 15.7652 11.8946 16.0196 11.7071 16.2071C11.5196 16.3946 11.2652 16.5 11 16.5C10.7348 16.5 10.4804 16.3946 10.2929 16.2071C10.1054 16.0196 10 15.7652 10 15.5C10 15.2348 10.1054 14.9804 10.2929 14.7929C10.4804 14.6054 10.7348 14.5 11 14.5C11.2652 14.5 11.5196 14.6054 11.7071 14.7929C11.8946 14.9804 12 15.2348 12 15.5ZM12 11.5C12 11.7652 11.8946 12.0196 11.7071 12.2071C11.5196 12.3946 11.2652 12.5 11 12.5C10.7348 12.5 10.4804 12.3946 10.2929 12.2071C10.1054 12.0196 10 11.7652 10 11.5C10 11.2348 10.1054 10.9804 10.2929 10.7929C10.4804 10.6054 10.7348 10.5 11 10.5C11.2652 10.5 11.5196 10.6054 11.7071 10.7929C11.8946 10.9804 12 11.2348 12 11.5ZM7 15.5C7 15.7652 6.89464 16.0196 6.70711 16.2071C6.51957 16.3946 6.26522 16.5 6 16.5C5.73478 16.5 5.48043 16.3946 5.29289 16.2071C5.10536 16.0196 5 15.7652 5 15.5C5 15.2348 5.10536 14.9804 5.29289 14.7929C5.48043 14.6054 5.73478 14.5 6 14.5C6.26522 14.5 6.51957 14.6054 6.70711 14.7929C6.89464 14.9804 7 15.2348 7 15.5ZM7 11.5C7 11.7652 6.89464 12.0196 6.70711 12.2071C6.51957 12.3946 6.26522 12.5 6 12.5C5.73478 12.5 5.48043 12.3946 5.29289 12.2071C5.10536 12.0196 5 11.7652 5 11.5C5 11.2348 5.10536 10.9804 5.29289 10.7929C5.48043 10.6054 5.73478 10.5 6 10.5C6.26522 10.5 6.51957 10.6054 6.70711 10.7929C6.89464 10.9804 7 11.2348 7 11.5Z" fill="white"/>
</svg>
