<svg width="14" height="12" viewBox="0 0 14 12" fill="none" xmlns="http://www.w3.org/2000/svg">
<path d="M8.39958 0H5.59957C2.95971 0 1.63978 -8.34465e-08 0.819673 0.820099C0.229195 1.41058 0.0638691 2.26017 0.0175781 3.675H13.9816C13.9353 2.26017 13.77 1.41058 13.1795 0.820099C12.3594 -8.34465e-08 11.0394 0 8.39958 0Z" fill="#930027"/>
<path d="M5.6 11.1997H8.4C11.0398 11.1997 12.3598 11.1997 13.1799 10.3796C14 9.5595 14 8.23951 14 5.59967C14 5.29034 14 4.99907 13.9987 4.72467H0.00132296C-3.91155e-08 4.99907 0 5.29034 0 5.59967C0 8.23951 8.34465e-08 9.5595 0.820099 10.3796C1.64021 11.1997 2.96013 11.1997 5.6 11.1997Z" fill="#930027"/>
</svg>
