<svg width="14" height="17" viewBox="0 0 14 17" fill="none" xmlns="http://www.w3.org/2000/svg">
<path d="M9.88825 3.87964V2.49333C9.88825 1.87234 9.88825 1.56185 9.75792 1.36113C9.64391 1.18552 9.46614 1.06103 9.2622 1.01388C9.029 0.959998 8.73723 1.06611 8.15359 1.27833L2.27653 3.41544C1.81662 3.58268 1.58667 3.6663 1.41706 3.81368C1.26724 3.94386 1.15168 4.10884 1.08054 4.29412C1 4.50388 1 4.74857 1 5.23794V8.72779M4.23209 12.7679H9.08023M4.23209 9.93983H9.08023M4.23209 7.11175H9.08023M3.58567 16H9.72665C10.6317 16 11.0843 16 11.43 15.8239C11.734 15.6689 11.9813 15.4217 12.1362 15.1176C12.3123 14.7719 12.3123 14.3194 12.3123 13.4143V6.46531C12.3123 5.56024 12.3123 5.1077 12.1362 4.76201C11.9813 4.45793 11.734 4.21071 11.43 4.05578C11.0843 3.87964 10.6317 3.87964 9.72665 3.87964H3.58567C2.68061 3.87964 2.22807 3.87964 1.88238 4.05578C1.57829 4.21071 1.33107 4.45793 1.17614 4.76201C1 5.1077 1 5.56024 1 6.46531V13.4143C1 14.3194 1 14.7719 1.17614 15.1176C1.33107 15.4217 1.57829 15.6689 1.88238 15.8239C2.22807 16 2.6806 16 3.58567 16Z" stroke="#930027" stroke-width="2" stroke-linecap="round" stroke-linejoin="round"/>
</svg>
