<svg width="70" height="70" viewBox="0 0 70 70" fill="none" xmlns="http://www.w3.org/2000/svg">
<circle cx="35" cy="35" r="35" fill="#930027"/>
<path d="M41.4125 45.875L46.625 40.7L45.05 39.125L41.4125 42.6875L39.95 41.225L38.375 42.8375L41.4125 45.875ZM24.5 29H42.5V26H24.5V29ZM42.5 50C40.425 50 38.656 49.2685 37.193 47.8055C35.73 46.3425 34.999 44.574 35 42.5C35 40.425 35.7315 38.656 37.1945 37.193C38.6575 35.73 40.426 34.999 42.5 35C44.575 35 46.344 35.7315 47.807 37.1945C49.27 38.6575 50.001 40.426 50 42.5C50 44.575 49.2685 46.344 47.8055 47.807C46.3425 49.27 44.574 50.001 42.5 50ZM20 48.5V23C20 22.175 20.294 21.4685 20.882 20.8805C21.47 20.2925 22.176 19.999 23 20H44C44.825 20 45.5315 20.294 46.1195 20.882C46.7075 21.47 47.001 22.176 47 23V33.0125C46.525 32.7875 46.0375 32.6 45.5375 32.45C45.0375 32.3 44.525 32.1875 44 32.1125V23H23V44.075H32.1125C32.2375 44.85 32.4315 45.5875 32.6945 46.2875C32.9575 46.9875 33.301 47.65 33.725 48.275L33.5 48.5L31.25 46.25L29 48.5L26.75 46.25L24.5 48.5L22.25 46.25L20 48.5ZM24.5 41H32.1125C32.1875 40.475 32.3 39.9625 32.45 39.4625C32.6 38.9625 32.7875 38.475 33.0125 38H24.5V41ZM24.5 35H35.15C36.1 34.075 37.2065 33.3435 38.4695 32.8055C39.7325 32.2675 41.076 31.999 42.5 32H24.5V35Z" fill="white"/>
</svg>
