<svg width="70" height="70" viewBox="0 0 70 70" fill="none" xmlns="http://www.w3.org/2000/svg">
<circle cx="35" cy="35" r="35" fill="#930027"/>
<path fill-rule="evenodd" clip-rule="evenodd" d="M36.0698 20H35.9302C35.0037 20 34.2042 20 33.5637 20.0865C32.8786 20.1786 32.22 20.3865 31.687 20.9195C31.154 21.4526 30.946 22.1112 30.854 22.7963C30.7674 23.4367 30.7674 24.2363 30.7674 25.1642V28.5507C30.4313 28.4321 30.0774 28.3717 29.7209 28.3721H25.5349C25.1226 28.3721 24.7143 28.4533 24.3334 28.6111C23.9525 28.7689 23.6064 29.0001 23.3149 29.2916C23.0234 29.5832 22.7921 29.9293 22.6343 30.3102C22.4766 30.6911 22.3953 31.0993 22.3953 31.5116V47.907H22.0465C21.769 47.907 21.5028 48.0172 21.3065 48.2135C21.1103 48.4097 21 48.6759 21 48.9535C21 49.231 21.1103 49.4972 21.3065 49.6935C21.5028 49.8897 21.769 50 22.0465 50H49.9535C50.231 50 50.4972 49.8897 50.6935 49.6935C50.8897 49.4972 51 49.231 51 48.9535C51 48.6759 50.8897 48.4097 50.6935 48.2135C50.4972 48.0172 50.231 47.907 49.9535 47.907H49.6047V38.4884C49.6047 37.6557 49.2739 36.8572 48.6851 36.2684C48.0963 35.6796 47.2978 35.3488 46.4651 35.3488H42.2791C41.9121 35.3488 41.5605 35.4116 41.2326 35.5274V25.1642C41.2326 24.2363 41.2326 23.4367 41.146 22.7963C41.054 22.1112 40.846 21.4526 40.313 20.9195C39.78 20.3865 39.1228 20.1786 38.4363 20.0865C37.7958 20 36.9963 20 36.0684 20H36.0698ZM47.5116 47.907V38.4884C47.5116 38.2108 47.4014 37.9446 47.2051 37.7484C47.0089 37.5521 46.7427 37.4419 46.4651 37.4419H42.2791C42.0015 37.4419 41.7353 37.5521 41.5391 37.7484C41.3428 37.9446 41.2326 38.2108 41.2326 38.4884V47.907H47.5116ZM39.1395 47.907V25.2326C39.1395 24.2167 39.1367 23.5581 39.0726 23.0753C39.0112 22.6219 38.9121 22.4795 38.8326 22.4C38.753 22.3205 38.6107 22.2214 38.1572 22.16C37.673 22.0958 37.0158 22.093 36 22.093C34.9842 22.093 34.3256 22.0958 33.8428 22.16C33.3893 22.2214 33.247 22.3205 33.1674 22.4C33.0879 22.4795 32.9888 22.6219 32.9274 23.0753C32.8633 23.5595 32.8605 24.2167 32.8605 25.2326V47.907H39.1395ZM30.7674 47.907V31.5116C30.7674 31.2341 30.6572 30.9679 30.4609 30.7716C30.2647 30.5754 29.9985 30.4651 29.7209 30.4651H25.5349C25.2573 30.4651 24.9911 30.5754 24.7949 30.7716C24.5986 30.9679 24.4884 31.2341 24.4884 31.5116V47.907H30.7674Z" fill="white"/>
</svg>
