<svg width="70" height="70" viewBox="0 0 70 70" fill="none" xmlns="http://www.w3.org/2000/svg">
<circle cx="35" cy="35" r="35" fill="#930027"/>
<path d="M44.8135 40.26C44.274 39.3027 43.5438 38.4662 42.668 37.8024C41.7923 37.1386 40.7897 36.6616 39.7222 36.4008C38.7206 36.1003 37.704 35.852 36.6767 35.6569V25.1139C38.7192 25.333 40.6677 26.0868 42.326 27.2992C42.4404 27.4007 42.5738 27.4787 42.7184 27.5287C42.863 27.5786 43.0161 27.5996 43.1688 27.5905C43.3215 27.5813 43.471 27.5421 43.6086 27.4752C43.7462 27.4083 43.8692 27.3149 43.9708 27.2004C44.0723 27.0859 44.1502 26.9526 44.2002 26.8079C44.2502 26.6633 44.2712 26.5103 44.262 26.3575C44.2528 26.2048 44.2137 26.0554 44.1467 25.9178C44.0798 25.7802 43.9864 25.6571 43.8719 25.5556C41.7916 23.9534 39.2934 22.9848 36.6767 22.7658V19.1624C36.6767 18.8541 36.5542 18.5585 36.3362 18.3405C36.1182 18.1225 35.8226 18 35.5143 18C35.206 18 34.9103 18.1225 34.6923 18.3405C34.4743 18.5585 34.3519 18.8541 34.3519 19.1624V22.6496C29.2373 22.7658 26.4127 25.3115 25.5525 27.5084C24.9787 28.9231 24.9241 30.4953 25.3986 31.9463C25.8731 33.3974 26.8459 34.6336 28.1447 35.436C30.0352 36.5885 32.1527 37.3181 34.3519 37.5748V48.2224C31.3172 48.0697 28.4101 46.9541 26.0523 45.0375C25.9471 44.9122 25.8166 44.8106 25.6695 44.7393C25.5223 44.6679 25.3617 44.6285 25.1982 44.6234C25.0348 44.6184 24.872 44.6479 24.7208 44.71C24.5695 44.7722 24.433 44.8655 24.3202 44.984C24.2075 45.1025 24.121 45.2435 24.0665 45.3977C24.012 45.5519 23.9906 45.7159 24.0038 45.8789C24.017 46.0419 24.0644 46.2003 24.143 46.3438C24.2216 46.4872 24.3295 46.6125 24.4598 46.7113C27.2402 49.0521 30.7202 50.4016 34.3519 50.5472V54.0345C34.3519 54.3427 34.4743 54.6384 34.6923 54.8564C34.9103 55.0744 35.206 55.1969 35.5143 55.1969C35.8226 55.1969 36.1182 55.0744 36.3362 54.8564C36.5542 54.6384 36.6767 54.3427 36.6767 54.0345V50.5472C39.9547 50.3264 43.7325 49.2802 45.1622 45.0142C45.4209 44.238 45.5233 43.4182 45.4634 42.6022C45.4035 41.7862 45.1827 40.9902 44.8135 40.26ZM29.4582 33.4832C28.6094 32.9779 27.9687 32.1865 27.6512 31.2511C27.3337 30.3157 27.3603 29.2978 27.7262 28.3802C27.8541 28.0315 29.1559 25.1139 34.3519 24.9744V35.2035C32.6179 34.9804 30.9504 34.3942 29.4582 33.4832ZM42.9536 44.2238C42.1167 46.7113 40.2569 47.9086 36.6767 48.1759V38.0282C37.4206 38.1909 38.1878 38.3769 39.0015 38.621C39.7701 38.7956 40.4952 39.1247 41.1327 39.5883C41.7701 40.0519 42.3066 40.6403 42.7095 41.3178C43.1654 42.2179 43.253 43.2602 42.9536 44.2238Z" fill="white"/>
</svg>
