<svg width="70" height="70" viewBox="0 0 70 70" fill="none" xmlns="http://www.w3.org/2000/svg">
<circle cx="35" cy="35" r="35" fill="#930027"/>
<path d="M18 46.25C18 44.2609 18.7902 42.3532 20.1967 40.9467C21.6032 39.5402 23.5109 38.75 25.5 38.75H40.5C42.4891 38.75 44.3968 39.5402 45.8033 40.9467C47.2098 42.3532 48 44.2609 48 46.25C48 47.2446 47.6049 48.1984 46.9016 48.9016C46.1984 49.6049 45.2446 50 44.25 50H21.75C20.7554 50 19.8016 49.6049 19.0983 48.9016C18.3951 48.1984 18 47.2446 18 46.25Z" stroke="white" stroke-width="2" stroke-linejoin="round"/>
<path d="M33 31.25C36.1066 31.25 38.625 28.7316 38.625 25.625C38.625 22.5184 36.1066 20 33 20C29.8934 20 27.375 22.5184 27.375 25.625C27.375 28.7316 29.8934 31.25 33 31.25Z" stroke="white" stroke-width="2"/>
<path d="M33 41.875C33 40.2174 33.6585 38.6277 34.8306 37.4556C36.0027 36.2835 37.5924 35.625 39.25 35.625H51.75C53.4076 35.625 54.9973 36.2835 56.1694 37.4556C57.3415 38.6277 58 40.2174 58 41.875C58 42.7038 57.6708 43.4987 57.0847 44.0847C56.4987 44.6708 55.7038 45 54.875 45H36.125C35.2962 45 34.5013 44.6708 33.9153 44.0847C33.3292 43.4987 33 42.7038 33 41.875Z" stroke="white" stroke-width="2" stroke-linejoin="round"/>
<path d="M45.5 29.375C48.0888 29.375 50.1875 27.2763 50.1875 24.6875C50.1875 22.0987 48.0888 20 45.5 20C42.9112 20 40.8125 22.0987 40.8125 24.6875C40.8125 27.2763 42.9112 29.375 45.5 29.375Z" stroke="white" stroke-width="2"/>
</svg>
