<svg width="20" height="20" viewBox="0 0 20 20" fill="none" xmlns="http://www.w3.org/2000/svg">
<circle opacity="0.1" cx="10" cy="10" r="10" fill="#005541"/>
<path d="M8.77778 7.77778H8.42222C7.9244 7.77778 7.67548 7.77778 7.48534 7.87466C7.31808 7.95988 7.1821 8.09586 7.09688 8.26312C7 8.45326 7 8.70218 7 9.2V12.5778C7 13.0756 7 13.3245 7.09688 13.5147C7.1821 13.6819 7.31808 13.8179 7.48534 13.9031C7.67548 14 7.9244 14 8.42222 14H10.0222C10.52 14 10.769 14 10.9591 13.9031C11.1264 13.8179 11.2624 13.6819 11.3476 13.5147C11.4444 13.3245 11.4444 13.0756 11.4444 12.5778V12.2222M13.2222 8.22222V10.8C13.2222 11.2978 13.2222 11.5468 13.1253 11.7369C13.0401 11.9041 12.9041 12.0401 12.7369 12.1253C12.5468 12.2222 12.2978 12.2222 11.8 12.2222H10.2C9.70218 12.2222 9.45324 12.2222 9.26311 12.1253C9.09586 12.0401 8.95988 11.9041 8.87466 11.7369C8.77778 11.5468 8.77778 11.2978 8.77778 10.8V7.42222C8.77778 6.9244 8.77778 6.67548 8.87466 6.48534C8.95988 6.31808 9.09586 6.1821 9.26311 6.09688C9.45324 6 9.70218 6 10.2 6H11M13.2222 8.22222L11 6M13.2222 8.22222H11.7111C11.4622 8.22222 11.3377 8.22222 11.2427 8.17378C11.159 8.13117 11.0911 8.06318 11.0484 7.97955C11 7.88448 11 7.76002 11 7.51111V6" stroke="black" stroke-linecap="round" stroke-linejoin="round"/>
</svg>
