<svg width="20" height="20" viewBox="0 0 20 20" fill="none" xmlns="http://www.w3.org/2000/svg">
<circle opacity="0.1" cx="10" cy="10" r="10" fill="#23856D"/>
<path fill-rule="evenodd" clip-rule="evenodd" d="M13.5625 13.8412C13.313 13.6295 12.937 13.6295 12.6875 13.8412C12.438 14.0529 12.062 14.0529 11.8125 13.8412C11.563 13.6295 11.187 13.6295 10.9375 13.8412C10.688 14.0529 10.312 14.0529 10.0625 13.8412C9.81299 13.6295 9.43701 13.6295 9.1875 13.8412C8.93799 14.0529 8.56201 14.0529 8.3125 13.8412C8.06299 13.6295 7.68701 13.6295 7.4375 13.8412C7.26798 13.9851 7 13.8702 7 13.6537V7.34634C7 7.12982 7.26798 7.01494 7.4375 7.15879C7.68701 7.37051 8.06299 7.37051 8.3125 7.15879C8.56201 6.94707 8.93799 6.94707 9.1875 7.15879C9.43701 7.37051 9.81299 7.37051 10.0625 7.15879C10.312 6.94707 10.688 6.94707 10.9375 7.15879C11.187 7.37051 11.563 7.37051 11.8125 7.15879C12.062 6.94707 12.438 6.94707 12.6875 7.15879C12.937 7.37051 13.313 7.37051 13.5625 7.15879C13.732 7.01494 14 7.12982 14 7.34634V13.6537C14 13.8702 13.732 13.9851 13.5625 13.8412ZM8.45833 10.5C8.45833 10.3389 8.58892 10.2083 8.75 10.2083H12.25C12.4111 10.2083 12.5417 10.3389 12.5417 10.5C12.5417 10.6611 12.4111 10.7917 12.25 10.7917H8.75C8.58892 10.7917 8.45833 10.6611 8.45833 10.5ZM8.75 8.84722C8.58892 8.84722 8.45833 8.97781 8.45833 9.13889C8.45833 9.29997 8.58892 9.43056 8.75 9.43056H12.25C12.4111 9.43056 12.5417 9.29997 12.5417 9.13889C12.5417 8.97781 12.4111 8.84722 12.25 8.84722H8.75ZM8.45833 11.8611C8.45833 11.7 8.58892 11.5694 8.75 11.5694H12.25C12.4111 11.5694 12.5417 11.7 12.5417 11.8611C12.5417 12.0222 12.4111 12.1528 12.25 12.1528H8.75C8.58892 12.1528 8.45833 12.0222 8.45833 11.8611Z" fill="#1C274C"/>
</svg>
