<svg width="20" height="20" viewBox="0 0 20 20" fill="none" xmlns="http://www.w3.org/2000/svg">
<circle opacity="0.1" cx="10" cy="10" r="10" fill="#233A85"/>
<path fill-rule="evenodd" clip-rule="evenodd" d="M8.97971 13.122L12.3966 8.70323C12.5823 8.46494 12.6484 8.18945 12.5865 7.90894C12.5328 7.65393 12.376 7.41147 12.1408 7.22753L11.5672 6.77186C11.0678 6.37472 10.4488 6.41652 10.0939 6.87219L9.71014 7.37008C9.66062 7.43237 9.673 7.52434 9.7349 7.5745C9.7349 7.5745 10.7047 8.35207 10.7253 8.36879C10.7913 8.4315 10.8409 8.51511 10.8532 8.61544C10.8739 8.81192 10.7377 8.99586 10.5355 9.02094C10.4406 9.03348 10.3498 9.00422 10.2838 8.94987L9.26445 8.13887C9.21493 8.10166 9.14065 8.1096 9.09939 8.15977L6.677 11.2951C6.52018 11.4916 6.46654 11.7466 6.52018 11.9932L6.82969 13.3352C6.84619 13.4062 6.90809 13.4564 6.98238 13.4564L8.34419 13.4397C8.5918 13.4355 8.82289 13.3226 8.97971 13.122ZM10.8866 12.7041H13.1072C13.3239 12.7041 13.5001 12.8826 13.5001 13.1021C13.5001 13.322 13.3239 13.5001 13.1072 13.5001H10.8866C10.67 13.5001 10.4938 13.322 10.4938 13.1021C10.4938 12.8826 10.67 12.7041 10.8866 12.7041Z" fill="#233A85"/>
</svg>
