<svg width="20" height="20" viewBox="0 0 20 20" fill="none" xmlns="http://www.w3.org/2000/svg">
<circle opacity="0.1" cx="10" cy="10" r="10" fill="#DF6F79"/>
<path fill-rule="evenodd" clip-rule="evenodd" d="M13.0505 7.63504C13.1866 7.63504 13.3 7.74809 13.3 7.89194V8.02493C13.3 8.16528 13.1866 8.28183 13.0505 8.28183H7.24985C7.11335 8.28183 7 8.16528 7 8.02493V7.89194C7 7.74809 7.11335 7.63504 7.24985 7.63504H8.27035C8.47765 7.63504 8.65806 7.48769 8.70469 7.27979L8.75813 7.04109C8.84119 6.71595 9.11452 6.5 9.42735 6.5H10.8727C11.1821 6.5 11.4585 6.71595 11.5385 7.02394L11.5957 7.27944C11.6419 7.48769 11.8224 7.63504 12.03 7.63504H13.0505ZM12.5321 12.4969C12.6386 11.5039 12.8251 9.14494 12.8251 9.12114C12.8319 9.04904 12.8085 8.98079 12.7618 8.92584C12.7118 8.87439 12.6485 8.84395 12.5787 8.84395H7.724C7.65388 8.84395 7.58717 8.87439 7.54087 8.92584C7.4939 8.98079 7.47075 9.04904 7.47416 9.12114C7.47478 9.12552 7.48147 9.20861 7.49267 9.34753C7.54238 9.96466 7.68083 11.6835 7.7703 12.4969C7.83361 13.0961 8.22677 13.4726 8.79624 13.4863C9.23569 13.4964 9.68841 13.4999 10.1513 13.4999C10.5874 13.4999 11.0302 13.4964 11.4833 13.4863C12.0725 13.4761 12.4653 13.1062 12.5321 12.4969Z" fill="#D11A2A"/>
</svg>
