<svg width="20" height="20" viewBox="0 0 20 20" fill="none" xmlns="http://www.w3.org/2000/svg">
<circle opacity="0.1" cx="10" cy="10" r="10" fill="#005541"/>
<path d="M14.678 10.5288C14.678 12.1651 14.678 12.9833 14.1696 13.4916C13.6613 14 12.8431 14 11.2068 14H9.47119C7.83485 14 7.01669 14 6.50834 13.4916C6 12.9833 6 12.1651 6 10.5288C6 8.89247 6 8.07431 6.50834 7.56596C7.01669 7.05762 7.83485 7.05762 9.47119 7.05762H11.2068C12.8431 7.05762 13.6613 7.05762 14.1696 7.56596C14.4576 7.85391 14.5824 8.24127 14.6365 8.82043" stroke="black" stroke-linecap="round"/>
<path d="M6.8623 7.30169C6.91109 6.89773 7.01293 6.61856 7.22556 6.40668C7.63366 6 8.29049 6 9.60416 6H10.9975C12.3112 6 12.968 6 13.3761 6.40668C13.5887 6.61856 13.6906 6.89773 13.7393 7.30169" stroke="black"/>
<path d="M12.7251 9.66107C13.0845 9.66107 13.3759 9.36968 13.3759 9.01022C13.3759 8.65077 13.0845 8.35938 12.7251 8.35938C12.3656 8.35938 12.0742 8.65077 12.0742 9.01022C12.0742 9.36968 12.3656 9.66107 12.7251 9.66107Z" stroke="black"/>
<path d="M6 10.7458L6.76001 10.0808C7.15541 9.73482 7.75134 9.75465 8.12284 10.1262L9.98414 11.9874C10.2823 12.2857 10.7517 12.3263 11.0967 12.0838L11.2261 11.9929C11.7226 11.644 12.3943 11.6844 12.8454 12.0904L14.2441 13.3492" stroke="black" stroke-linecap="round"/>
</svg>
