<svg width="20" height="20" viewBox="0 0 20 20" fill="none" xmlns="http://www.w3.org/2000/svg">
<circle opacity="0.1" cx="10" cy="10" r="10" fill="#F110C0"/>
<path d="M11.8439 7.2796C11.9984 7.27988 12.1466 7.34133 12.256 7.45052C12.3654 7.55972 12.4271 7.70777 12.4276 7.86234V13.4173C12.4271 13.5718 12.3654 13.7199 12.256 13.8291C12.1466 13.9383 11.9984 13.9997 11.8439 14H7.58379C7.42922 13.9997 7.28106 13.9383 7.17166 13.8291C7.06227 13.7199 7.00056 13.5718 7 13.4173V7.86234C7.00056 7.70777 7.06227 7.55972 7.17166 7.45052C7.28106 7.34133 7.42922 7.27988 7.58379 7.2796H7.80205V7.86234H7.58431L7.58326 7.86339V13.4162L7.58431 13.4173H11.8433L11.8444 13.4162V7.86339L11.8433 7.86234H11.6256V7.2796H11.8439ZM11.3284 9.42331H8.04135V10.006H11.3284V9.42331ZM11.3284 10.6524H8.04135V11.2352H11.3284V10.6524ZM11.3284 11.8815H8.04135V12.4643H11.3284V11.8815ZM11.0429 7.1823V7.83972C11.0429 7.90603 11.0166 7.96962 10.9697 8.01656C10.9229 8.06349 10.8593 8.08993 10.793 8.09007H8.63461C8.56839 8.08993 8.50493 8.06356 8.45811 8.01674C8.41129 7.96992 8.38493 7.90646 8.38479 7.84025V7.18283C8.38479 7.11652 8.41109 7.05293 8.45793 7.00599C8.50476 6.95906 8.5683 6.93262 8.63461 6.93248H9.00118V6.24982C9.00132 6.18361 9.02769 6.12014 9.07451 6.07332C9.12133 6.0265 9.18479 6.00014 9.251 6H10.1766C10.2429 6.00014 10.3063 6.0265 10.3531 6.07332C10.4 6.12014 10.4263 6.18361 10.4265 6.24982V6.93353H10.793C10.8592 6.93367 10.9225 6.95997 10.9694 7.00667C11.0162 7.05338 11.0426 7.11671 11.0429 7.18283V7.1823ZM10.0031 6.67057C10.0031 6.61294 9.986 6.55661 9.95398 6.50869C9.92197 6.46078 9.87646 6.42343 9.82322 6.40138C9.76998 6.37933 9.7114 6.37356 9.65488 6.3848C9.59836 6.39604 9.54644 6.42379 9.50569 6.46454C9.46494 6.50529 9.43719 6.5572 9.42595 6.61372C9.41471 6.67024 9.42048 6.72883 9.44253 6.78207C9.46459 6.83531 9.50193 6.88082 9.54985 6.91283C9.59776 6.94485 9.65409 6.96194 9.71172 6.96194C9.789 6.96194 9.86311 6.93124 9.91775 6.8766C9.97239 6.82195 10.0031 6.74784 10.0031 6.67057Z" fill="black"/>
</svg>
