<svg width="20" height="20" viewBox="0 0 20 20" fill="none" xmlns="http://www.w3.org/2000/svg">
<circle cx="10" cy="10" r="10" fill="#109CF1" fill-opacity="0.06"/>
<path d="M9.86089 8.55427C9.42891 8.55427 9.01462 8.72587 8.70917 9.03133C8.40371 9.33678 8.23211 9.75107 8.23211 10.1831C8.23211 10.615 8.40371 11.0293 8.70917 11.3348C9.01462 11.6402 9.42891 11.8118 9.86089 11.8118C10.2929 11.8118 10.7072 11.6402 11.0126 11.3348C11.3181 11.0293 11.4897 10.615 11.4897 10.1831C11.4897 9.75107 11.3181 9.33678 11.0126 9.03133C10.7072 8.72587 10.2929 8.55427 9.86089 8.55427ZM9.86089 12.8977C9.14092 12.8977 8.45044 12.6117 7.94135 12.1026C7.43225 11.5935 7.14625 10.903 7.14625 10.1831C7.14625 9.46308 7.43225 8.7726 7.94135 8.26351C8.45044 7.75441 9.14092 7.46841 9.86089 7.46841C10.5809 7.46841 11.2713 7.75441 11.7804 8.26351C12.2895 8.7726 12.5755 9.46308 12.5755 10.1831C12.5755 10.903 12.2895 11.5935 11.7804 12.1026C11.2713 12.6117 10.5809 12.8977 9.86089 12.8977ZM9.86089 6.11108C7.14625 6.11108 4.82794 7.79959 3.88867 10.1831C4.82794 12.5665 7.14625 14.255 9.86089 14.255C12.5755 14.255 14.8938 12.5665 15.8331 10.1831C14.8938 7.79959 12.5755 6.11108 9.86089 6.11108Z" fill="#4361EE" fill-opacity="0.8"/>
</svg>