<svg width="20" height="17" viewBox="0 0 20 17" fill="none" xmlns="http://www.w3.org/2000/svg">
<path d="M5.4535 0.13787C5.40995 0.0941698 5.35821 0.0594962 5.30123 0.0358374C5.24425 0.0121786 5.18316 0 5.12147 0C5.05977 0 4.99869 0.0121786 4.94171 0.0358374C4.88473 0.0594962 4.83299 0.0941698 4.78944 0.13787L2.30193 2.61092L1.41521 1.74686C1.37167 1.70316 1.31992 1.66848 1.26294 1.64482C1.20596 1.62116 1.14488 1.60899 1.08318 1.60899C1.02149 1.60899 0.960402 1.62116 0.903424 1.64482C0.846447 1.66848 0.7947 1.70316 0.751152 1.74686L0.13787 2.36092C0.0941698 2.40447 0.0594962 2.45621 0.0358374 2.51319C0.0121786 2.57017 0 2.63126 0 2.69295C0 2.75464 0.0121786 2.81573 0.0358374 2.87271C0.0594962 2.92969 0.0941698 2.98143 0.13787 3.02498L1.99686 4.87655C2.08965 4.96475 2.21278 5.01394 2.3408 5.01394C2.46883 5.01394 2.59196 4.96475 2.68475 4.87655L3.29373 4.26639L6.11405 1.44647C6.20192 1.35852 6.25157 1.23948 6.25223 1.11516C6.25289 0.990836 6.2045 0.871271 6.11756 0.782402L5.4535 0.13787ZM5.4535 6.35624C5.40995 6.31254 5.35821 6.27786 5.30123 6.2542C5.24425 6.23054 5.18316 6.21837 5.12147 6.21837C5.05977 6.21837 4.99869 6.23054 4.94171 6.2542C4.88473 6.27786 4.83299 6.31254 4.78944 6.35624L2.30193 8.8453L1.41521 7.98202C1.37167 7.93832 1.31992 7.90365 1.26294 7.87999C1.20596 7.85633 1.14488 7.84415 1.08318 7.84415C1.02149 7.84415 0.960402 7.85633 0.903424 7.87999C0.846447 7.90365 0.7947 7.93832 0.751152 7.98202L0.13787 8.59491C0.0941698 8.63846 0.0594962 8.69021 0.0358374 8.74718C0.0121786 8.80416 0 8.86525 0 8.92694C0 8.98864 0.0121786 9.04972 0.0358374 9.1067C0.0594962 9.16368 0.0941698 9.21542 0.13787 9.25897L1.99217 11.1144C2.08489 11.2026 2.20796 11.2518 2.33592 11.2518C2.46388 11.2518 2.58694 11.2026 2.67967 11.1144L3.29295 10.5016L6.11327 7.68046C6.2008 7.59313 6.25029 7.47475 6.25095 7.3511C6.25161 7.22745 6.20338 7.10856 6.11678 7.0203L5.4535 6.35624ZM2.49998 13.1262C1.46521 13.1262 0.601933 13.966 0.601933 15.0012C0.601933 16.0363 1.466 16.8762 2.49998 16.8762C2.99726 16.8762 3.47418 16.6786 3.82581 16.327C4.17744 15.9754 4.37498 15.4984 4.37498 15.0012C4.37498 14.5039 4.17744 14.027 3.82581 13.6753C3.47418 13.3237 2.99726 13.1262 2.49998 13.1262ZM19.375 13.7512H8.12499C7.95923 13.7512 7.80026 13.817 7.68305 13.9342C7.56583 14.0514 7.49999 14.2104 7.49999 14.3762V15.6262C7.49999 15.7919 7.56583 15.9509 7.68305 16.0681C7.80026 16.1853 7.95923 16.2512 8.12499 16.2512H19.375C19.5408 16.2512 19.6997 16.1853 19.8169 16.0681C19.9342 15.9509 20 15.7919 20 15.6262V14.3762C20 14.2104 19.9342 14.0514 19.8169 13.9342C19.6997 13.817 19.5408 13.7512 19.375 13.7512ZM19.375 1.25115H8.12499C7.95923 1.25115 7.80026 1.317 7.68305 1.43421C7.56583 1.55142 7.49999 1.71039 7.49999 1.87615V3.12615C7.49999 3.29191 7.56583 3.45089 7.68305 3.5681C7.80026 3.68531 7.95923 3.75115 8.12499 3.75115H19.375C19.5408 3.75115 19.6997 3.68531 19.8169 3.5681C19.9342 3.45089 20 3.29191 20 3.12615V1.87615C20 1.71039 19.9342 1.55142 19.8169 1.43421C19.6997 1.317 19.5408 1.25115 19.375 1.25115ZM19.375 7.50116H8.12499C7.95923 7.50116 7.80026 7.56701 7.68305 7.68422C7.56583 7.80143 7.49999 7.9604 7.49999 8.12616V9.37616C7.49999 9.54192 7.56583 9.70089 7.68305 9.8181C7.80026 9.93531 7.95923 10.0012 8.12499 10.0012H19.375C19.5408 10.0012 19.6997 9.93531 19.8169 9.8181C19.9342 9.70089 20 9.54192 20 9.37616V8.12616C20 7.9604 19.9342 7.80143 19.8169 7.68422C19.6997 7.56701 19.5408 7.50116 19.375 7.50116Z" fill="white"/>
</svg>
