<svg width="15" height="15" viewBox="0 0 15 15" fill="none" xmlns="http://www.w3.org/2000/svg">
<path d="M0 13.3333C0 13.7754 0.175595 14.1993 0.488155 14.5118C0.800716 14.8244 1.22464 15 1.66667 15H13.3333C13.7754 15 14.1993 14.8244 14.5118 14.5118C14.8244 14.1993 15 13.7754 15 13.3333V10H0V13.3333ZM5.83333 11.6667H12.5C12.721 11.6667 12.933 11.7545 13.0893 11.9107C13.2455 12.067 13.3333 12.279 13.3333 12.5C13.3333 12.721 13.2455 12.933 13.0893 13.0893C12.933 13.2455 12.721 13.3333 12.5 13.3333H5.83333C5.61232 13.3333 5.40036 13.2455 5.24408 13.0893C5.0878 12.933 5 12.721 5 12.5C5 12.279 5.0878 12.067 5.24408 11.9107C5.40036 11.7545 5.61232 11.6667 5.83333 11.6667ZM1.66667 12.0833C1.66667 11.9728 1.71057 11.8668 1.78871 11.7887C1.86685 11.7106 1.97283 11.6667 2.08333 11.6667H2.91667C3.02717 11.6667 3.13315 11.7106 3.21129 11.7887C3.28943 11.8668 3.33333 11.9728 3.33333 12.0833V12.9167C3.33333 13.0272 3.28943 13.1332 3.21129 13.2113C3.13315 13.2894 3.02717 13.3333 2.91667 13.3333H2.08333C1.97283 13.3333 1.86685 13.2894 1.78871 13.2113C1.71057 13.1332 1.66667 13.0272 1.66667 12.9167V12.0833ZM0 0.833333V8.33333H15V0.833333C15 0.61232 14.9122 0.400358 14.7559 0.244078C14.5996 0.0877974 14.3877 0 14.1667 0L0.833333 0C0.61232 0 0.400358 0.0877974 0.244078 0.244078C0.0877974 0.400358 0 0.61232 0 0.833333ZM13.3333 2.5C13.3333 2.66482 13.2845 2.82593 13.1929 2.96298C13.1013 3.10002 12.9712 3.20683 12.8189 3.2699C12.6666 3.33297 12.4991 3.34948 12.3374 3.31732C12.1758 3.28517 12.0273 3.2058 11.9107 3.08926C11.7942 2.97271 11.7148 2.82423 11.6827 2.66258C11.6505 2.50092 11.667 2.33337 11.7301 2.1811C11.7932 2.02883 11.9 1.89868 12.037 1.80711C12.1741 1.71554 12.3352 1.66667 12.5 1.66667C12.721 1.66667 12.933 1.75446 13.0893 1.91074C13.2455 2.06702 13.3333 2.27899 13.3333 2.5ZM1.66667 5.83333C1.93651 4.78671 2.28843 3.76298 2.71917 2.77167C3.11583 2.31917 3.6425 2.56333 4.07917 2.78083L5.05 3.26667C5.07417 3.27917 5.6 2.53667 5.64333 2.47917C5.92 2.11167 6.19333 1.62667 6.72667 1.67C7.08496 1.75429 7.42164 1.91269 7.715 2.135L8.61167 2.6475L9.70583 3.2725L10.8408 3.92083L11.8592 4.50417L12.6033 4.92917C12.8808 5.0875 13.17 5.23083 13.2842 5.55667C13.3306 5.68958 13.3432 5.832 13.3206 5.97098C13.2981 6.10997 13.2411 6.24111 13.155 6.3525C13.0648 6.45866 12.9511 6.54233 12.823 6.59687C12.6948 6.65141 12.5557 6.6753 12.4167 6.66667H2.5C2.27899 6.66667 2.06702 6.57887 1.91074 6.42259C1.75446 6.26631 1.66667 6.05435 1.66667 5.83333Z" fill="white"/>
</svg>
