<svg width="16" height="16" viewBox="0 0 16 16" fill="none" xmlns="http://www.w3.org/2000/svg">
<path d="M1 5.66667H15M4.11111 1V2.55556M11.8889 1V2.55556M3.33333 8.77778H4.88889M3.33333 11.8889H4.88889M7.22222 8.77778H8.77778M7.22222 11.8889H8.77778M11.1111 8.77778H12.6667M11.1111 11.8889H12.6667M3.48889 15H12.5111C13.3823 15 13.8179 15 14.1507 14.8304C14.4433 14.6813 14.6813 14.4433 14.8304 14.1507C15 13.8179 15 13.3823 15 12.5111V5.04444C15 4.17325 15 3.73765 14.8304 3.4049C14.6813 3.1122 14.4433 2.87423 14.1507 2.7251C13.8179 2.55556 13.3823 2.55556 12.5111 2.55556H3.48889C2.6177 2.55556 2.1821 2.55556 1.84935 2.7251C1.55665 2.87423 1.31868 3.1122 1.16955 3.4049C1 3.73765 1 4.17325 1 5.04444V12.5111C1 13.3823 1 13.8179 1.16955 14.1507C1.31868 14.4433 1.55665 14.6813 1.84935 14.8304C2.1821 15 2.61769 15 3.48889 15Z" stroke="#31A613" stroke-width="1.5" stroke-linecap="round" stroke-linejoin="round"/>
</svg>
