<svg width="22" height="22" viewBox="0 0 22 22" fill="none" xmlns="http://www.w3.org/2000/svg">
<path d="M11.6118 13.9223L19.2785 8.77784C19.4456 8.66779 19.6393 8.6049 19.8392 8.59583C20.0391 8.58675 20.2377 8.63182 20.4141 8.72628C20.5905 8.82074 20.7381 8.96107 20.8414 9.13247C20.9446 9.30387 20.9996 9.49997 21.0007 9.70007V19.8889C21.0007 20.1836 20.8836 20.4662 20.6752 20.6746C20.4669 20.883 20.1843 21.0001 19.8896 21.0001H2.1118C1.81712 21.0001 1.5345 20.883 1.32613 20.6746C1.11775 20.4662 1.00069 20.1836 1.00069 19.8889V9.74451C0.993501 9.54066 1.04256 9.33877 1.1425 9.16096C1.24244 8.98314 1.3894 8.83627 1.56727 8.73643C1.74514 8.63659 1.94706 8.58765 2.1509 8.59495C2.35474 8.60226 2.55264 8.66553 2.72291 8.77784L10.3896 13.8778C10.5666 14.004 10.7768 14.0755 10.994 14.0834C11.2113 14.0913 11.4261 14.0353 11.6118 13.9223Z" fill="#930027"/>
<path d="M15.4451 1V3.22222H17.6673M15.4451 1L17.6673 3.22222M15.4451 1H5.44513C5.15045 1 4.86783 1.11706 4.65946 1.32544C4.45109 1.53381 4.33402 1.81643 4.33402 2.11111V9.88888L10.3896 13.9222C10.571 14.0417 10.7835 14.1054 11.0007 14.1054C11.2179 14.1054 11.4304 14.0417 11.6118 13.9222M17.6673 3.22222V9.88888L11.6118 13.9222M11.6118 13.9222L19.2785 8.77777C19.4456 8.66772 19.6393 8.60483 19.8392 8.59576C20.0391 8.58668 20.2377 8.63175 20.4141 8.72621C20.5905 8.82067 20.7381 8.961 20.8414 9.1324C20.9446 9.3038 20.9996 9.4999 21.0007 9.69999V19.8889C21.0007 20.1836 20.8836 20.4662 20.6752 20.6746C20.4669 20.8829 20.1843 21 19.8896 21H2.1118C1.81712 21 1.5345 20.8829 1.32613 20.6746C1.11775 20.4662 1.00069 20.1836 1.00069 19.8889V9.74444C0.993501 9.54059 1.04256 9.3387 1.1425 9.16089C1.24244 8.98307 1.3894 8.8362 1.56727 8.73636C1.74514 8.63652 1.94706 8.58758 2.1509 8.59488C2.35474 8.60219 2.55264 8.66546 2.72291 8.77777L10.3896 13.8778C10.5666 14.0039 10.7768 14.0754 10.994 14.0833C11.2113 14.0912 11.4261 14.0352 11.6118 13.9222Z" stroke="#930027" stroke-width="1.5" stroke-linecap="round" stroke-linejoin="round"/>
</svg>
