<svg width="20" height="20" viewBox="0 0 20 20" fill="none" xmlns="http://www.w3.org/2000/svg">
<path d="M16 11.25V8.75H20V11.25H16ZM17.2 20L14 17L15.2 15L18.4 18L17.2 20ZM15.2 5L14 3L17.2 0L18.4 2L15.2 5ZM3 18.75V13.75H2C1.45 13.75 0.979002 13.505 0.587002 13.015C0.195002 12.525 -0.000664969 11.9367 1.69779e-06 11.25V8.75C1.69779e-06 8.0625 0.196002 7.47375 0.588002 6.98375C0.980002 6.49375 1.45067 6.24917 2 6.25H6L11 2.5V17.5L6 13.75H5V18.75H3ZM9 13.0625V6.9375L6.55 8.75H2V11.25H6.55L9 13.0625ZM12 14.1875V5.8125C12.45 6.3125 12.8127 6.92208 13.088 7.64125C13.3633 8.36042 13.5007 9.14667 13.5 10C13.5 10.8542 13.3623 11.6408 13.087 12.36C12.8117 13.0792 12.4493 13.6883 12 14.1875Z" fill="#930027"/>
</svg>
