<svg width="19" height="20" viewBox="0 0 19 20" fill="none" xmlns="http://www.w3.org/2000/svg">
<path d="M9.45195 6.33337C8.72675 6.33337 8.01784 6.54842 7.41486 6.95132C6.81188 7.35422 6.34191 7.92687 6.06439 8.59687C5.78687 9.26686 5.71425 10.0041 5.85573 10.7154C5.99721 11.4266 6.34643 12.08 6.85922 12.5928C7.37201 13.1056 8.02535 13.4548 8.73661 13.5963C9.44788 13.7377 10.1851 13.6651 10.8551 13.3876C11.5251 13.1101 12.0978 12.6401 12.5007 12.0371C12.9036 11.4341 13.1186 10.7252 13.1186 10C13.1175 9.02792 12.7308 8.09593 12.0435 7.40853C11.3561 6.72114 10.4241 6.33448 9.45195 6.33337ZM9.45195 12.3334C8.99046 12.3334 8.53933 12.1965 8.15562 11.9401C7.7719 11.6837 7.47283 11.3193 7.29623 10.893C7.11962 10.4666 7.07342 9.99745 7.16345 9.54483C7.25348 9.09221 7.47571 8.67645 7.80203 8.35012C8.12835 8.0238 8.54411 7.80157 8.99674 7.71154C9.44936 7.62151 9.91851 7.66772 10.3449 7.84432C10.7712 8.02093 11.1357 8.31999 11.392 8.70371C11.6484 9.08742 11.7853 9.53855 11.7853 10C11.7846 10.6187 11.5385 11.2118 11.1011 11.6492C10.6637 12.0866 10.0706 12.3327 9.45195 12.3334Z" fill="#930027"/>
<path d="M18.5998 12.7633L17.2761 11.6736C17.5108 10.5702 17.5108 9.4298 17.2761 8.32642L18.5998 7.23671C18.7525 7.11162 18.8557 6.93626 18.8908 6.74204C18.926 6.54783 18.8909 6.34743 18.7918 6.17675L17.4329 3.82329C17.3347 3.65206 17.1787 3.5214 16.9929 3.45474C16.807 3.38809 16.6036 3.38979 16.4189 3.45954L14.8122 4.0615C13.9752 3.30528 12.9878 2.73458 11.9147 2.38684L11.6328 0.696378C11.6008 0.501558 11.5006 0.324474 11.35 0.196865C11.1993 0.0692564 11.0082 -0.000534032 10.8108 3.07723e-06H8.09318C7.89577 -0.000527197 7.70463 0.0692604 7.554 0.196859C7.40337 0.324458 7.30311 0.501528 7.27118 0.696336L6.98943 2.38684C5.91635 2.73457 4.92892 3.30528 4.09193 4.0615L2.48506 3.45946C2.30039 3.38975 2.09693 3.38808 1.91114 3.45474C1.72535 3.5214 1.56937 3.65204 1.47114 3.82325L0.112348 6.17688C0.0132486 6.34757 -0.0218458 6.54797 0.0133502 6.74218C0.0485463 6.93639 0.151734 7.11173 0.304431 7.23679L1.62806 8.32642C1.39339 9.4298 1.39339 10.5702 1.62806 11.6736L0.304306 12.7633C0.151633 12.8884 0.0484738 13.0637 0.0133013 13.2579C-0.0218711 13.4522 0.0132402 13.6526 0.112348 13.8232L1.47118 16.1767C1.56942 16.3479 1.72543 16.4786 1.91124 16.5452C2.09706 16.6119 2.30054 16.6102 2.48522 16.5405L4.09197 15.9385C4.92896 16.6947 5.91639 17.2654 6.98947 17.6132L7.27122 19.3036C7.30314 19.4984 7.4034 19.6755 7.55401 19.8031C7.70463 19.9307 7.89577 20.0005 8.09318 20H10.8108C11.0082 20.0005 11.1993 19.9307 11.3499 19.8032C11.5006 19.6756 11.6008 19.4985 11.6328 19.3037L11.9146 17.6132C12.9876 17.2654 13.9751 16.6947 14.8121 15.9385L16.4189 16.5405C16.6036 16.6102 16.807 16.6119 16.9928 16.5452C17.1786 16.4786 17.3346 16.348 17.4328 16.1767L18.7915 13.8231C18.8906 13.6525 18.9258 13.4521 18.8907 13.2579C18.8556 13.0637 18.7525 12.8884 18.5998 12.7633ZM16.49 15.1433L14.4855 14.3923L14.1819 14.6979C13.3468 15.5396 12.3022 16.1434 11.1559 16.4467L10.7392 16.5566L10.3873 18.6667H8.51693L8.16518 16.5566L7.74851 16.4467C6.60222 16.1434 5.55762 15.5396 4.72247 14.6979L4.41893 14.3923L2.41406 15.1433L1.47901 13.5234L3.13022 12.1641L3.01772 11.7485C2.70834 10.6034 2.70834 9.39662 3.01772 8.25146L3.13022 7.83596L1.47901 6.47663L2.41426 4.85671L4.41881 5.60771L4.72235 5.30213C5.55749 4.46036 6.60209 3.85664 7.74839 3.55325L8.16505 3.44342L8.51676 1.33334H10.3873L10.7391 3.44342L11.1558 3.55325C12.3021 3.85664 13.3467 4.46036 14.1818 5.30213L14.4853 5.60771L16.4899 4.85671L17.4252 6.47658L15.774 7.83596L15.8865 8.25146C16.1959 9.39662 16.1959 10.6034 15.8865 11.7485L15.774 12.1641L17.4252 13.5234L16.49 15.1433Z" fill="#930027"/>
</svg>
