<svg width="20" height="20" viewBox="0 0 20 20" fill="none" xmlns="http://www.w3.org/2000/svg">
<path d="M0 17.7778C0 18.3671 0.234126 18.9324 0.650874 19.3491C1.06762 19.7659 1.63285 20 2.22222 20H17.7778C18.3671 20 18.9324 19.7659 19.3491 19.3491C19.7659 18.9324 20 18.3671 20 17.7778V13.3333H0V17.7778ZM7.77778 15.5556H16.6667C16.9614 15.5556 17.244 15.6726 17.4523 15.881C17.6607 16.0894 17.7778 16.372 17.7778 16.6667C17.7778 16.9614 17.6607 17.244 17.4523 17.4523C17.244 17.6607 16.9614 17.7778 16.6667 17.7778H7.77778C7.48309 17.7778 7.20048 17.6607 6.9921 17.4523C6.78373 17.244 6.66667 16.9614 6.66667 16.6667C6.66667 16.372 6.78373 16.0894 6.9921 15.881C7.20048 15.6726 7.48309 15.5556 7.77778 15.5556ZM2.22222 16.1111C2.22222 15.9638 2.28075 15.8225 2.38494 15.7183C2.48913 15.6141 2.63044 15.5556 2.77778 15.5556H3.88889C4.03623 15.5556 4.17754 15.6141 4.28173 15.7183C4.38591 15.8225 4.44444 15.9638 4.44444 16.1111V17.2222C4.44444 17.3696 4.38591 17.5109 4.28173 17.6151C4.17754 17.7192 4.03623 17.7778 3.88889 17.7778H2.77778C2.63044 17.7778 2.48913 17.7192 2.38494 17.6151C2.28075 17.5109 2.22222 17.3696 2.22222 17.2222V16.1111ZM0 1.11111V11.1111H20V1.11111C20 0.816426 19.8829 0.533811 19.6746 0.325437C19.4662 0.117063 19.1836 0 18.8889 0L1.11111 0C0.816426 0 0.533811 0.117063 0.325437 0.325437C0.117063 0.533811 0 0.816426 0 1.11111ZM17.7778 3.33333C17.7778 3.55309 17.7126 3.76791 17.5905 3.95063C17.4684 4.13335 17.2949 4.27577 17.0919 4.35987C16.8888 4.44396 16.6654 4.46597 16.4499 4.42309C16.2344 4.38022 16.0364 4.2744 15.881 4.11901C15.7256 3.96362 15.6198 3.76563 15.5769 3.5501C15.534 3.33457 15.556 3.11116 15.6401 2.90813C15.7242 2.7051 15.8666 2.53157 16.0494 2.40948C16.2321 2.28739 16.4469 2.22222 16.6667 2.22222C16.9614 2.22222 17.244 2.33929 17.4523 2.54766C17.6607 2.75603 17.7778 3.03865 17.7778 3.33333ZM2.22222 7.77778C2.58201 6.38228 3.05124 5.01731 3.62556 3.69556C4.15444 3.09222 4.85667 3.41778 5.43889 3.70778L6.73333 4.35556C6.76556 4.37222 7.46667 3.38222 7.52444 3.30556C7.89333 2.81556 8.25778 2.16889 8.96889 2.22667C9.44662 2.33906 9.89552 2.55026 10.2867 2.84667L11.4822 3.53L12.9411 4.36333L14.4544 5.22778L15.8122 6.00556L16.8044 6.57222C17.1744 6.78333 17.56 6.97444 17.7122 7.40889C17.7742 7.5861 17.7909 7.776 17.7608 7.96131C17.7307 8.14662 17.6548 8.32148 17.54 8.47C17.4198 8.61155 17.2682 8.72311 17.0973 8.79583C16.9264 8.86854 16.7409 8.90041 16.5556 8.88889H3.33333C3.03865 8.88889 2.75603 8.77183 2.54766 8.56345C2.33929 8.35508 2.22222 8.07246 2.22222 7.77778Z" fill="#930027"/>
</svg>
