<svg width="20" height="20" viewBox="0 0 20 20" fill="none" xmlns="http://www.w3.org/2000/svg">
<path d="M20 10C20 15.5228 15.5228 20 10 20C4.47715 20 0 15.5228 0 10C0 4.47715 4.47715 0 10 0C15.5228 0 20 4.47715 20 10ZM1.82439 10C1.82439 14.5153 5.48474 18.1756 10 18.1756C14.5153 18.1756 18.1756 14.5153 18.1756 10C18.1756 5.48474 14.5153 1.82439 10 1.82439C5.48474 1.82439 1.82439 5.48474 1.82439 10Z" fill="#930027"/>
<path d="M11.3636 15.4546C11.3636 16.2077 10.7531 16.8182 9.99999 16.8182C9.2469 16.8182 8.63635 16.2077 8.63635 15.4546C8.63635 14.7015 9.2469 14.0909 9.99999 14.0909C10.7531 14.0909 11.3636 14.7015 11.3636 15.4546Z" fill="#930027"/>
<path d="M9.09097 10V11.8182C9.09097 11.8182 9.09097 12.7273 10.0001 12.7273C10.9092 12.7273 10.9092 11.8182 10.9092 11.8182V10C10.9092 10 11.3448 9.8754 11.5118 9.80758C11.5118 9.80758 11.8154 9.69922 12.028 9.53603C12.2406 9.37294 12.4329 9.17912 12.605 8.95485C12.7872 8.73049 12.9289 8.47049 13.0301 8.17477C13.1312 7.87906 13.1819 7.63985 13.1819 7.27276C13.1819 6.66095 13.0452 6.03344 12.772 5.57458C12.5088 5.10552 12.1342 4.74354 11.6484 4.48862C11.1626 4.22351 10.5958 4.09094 9.94797 4.09094C9.54315 4.09094 9.18379 4.14192 8.87006 4.2439C8.55624 4.33567 8.27797 4.46312 8.035 4.62628C7.8022 4.77923 7.60483 4.95258 7.44289 5.14632C7.29107 5.32986 7.16961 5.50831 7.07851 5.68165C6.98741 5.855 6.92669 6.00794 6.89632 6.14051C6.83559 6.33424 6.81029 6.4923 6.82041 6.61466C6.84065 6.73702 6.90138 6.83899 7.0026 6.92056C7.10381 7.00213 7.2607 7.08881 7.47325 7.18058C7.69593 7.25196 7.868 7.27745 7.98946 7.25706C8.12104 7.23666 8.22733 7.17548 8.30833 7.07352C8.30833 7.07352 8.73988 6.45975 8.86133 6.33739C8.99297 6.20483 9.15488 6.10287 9.34724 6.03149C9.53951 5.94992 9.75715 5.90912 10.0001 5.90912C10.5264 5.90912 10.9161 6.03659 11.1692 6.29151C11.4322 6.53623 11.5118 6.74212 11.5118 7.21117C11.5118 7.52727 11.4562 7.7822 11.3448 7.97593C11.2334 8.16967 11.0867 8.32776 10.9045 8.45012C10.9045 8.45012 10.6571 8.54467 10.4546 8.6364C10.2623 8.71794 9.90924 8.85285 9.72706 8.95485C9.55497 9.04658 9.45851 9.14303 9.34724 9.28585C9.23588 9.42858 9.09097 9.75531 9.09097 10Z" fill="#930027"/>
</svg>
