<svg width="22" height="22" viewBox="0 0 22 22" fill="none" xmlns="http://www.w3.org/2000/svg">
<circle cx="11" cy="11" r="11" fill="white"/>
<path d="M7.44075 16.884L6.3 8.9H16.7L15.5592 16.884C15.515 17.1937 15.3604 17.4771 15.124 17.6821C14.8876 17.8872 14.5852 18 14.2722 18H8.72775C8.41482 18 8.11239 17.8872 7.87598 17.6821C7.63956 17.4771 7.48503 17.1937 7.44075 16.884ZM17.35 6.3H14.1V5.65C14.1 5.47761 14.0315 5.31228 13.9096 5.19038C13.7877 5.06848 13.6224 5 13.45 5H9.55C9.37761 5 9.21228 5.06848 9.09038 5.19038C8.96848 5.31228 8.9 5.47761 8.9 5.65V6.3H5.65C5.47761 6.3 5.31228 6.36848 5.19038 6.49038C5.06848 6.61228 5 6.77761 5 6.95C5 7.12239 5.06848 7.28772 5.19038 7.40962C5.31228 7.53152 5.47761 7.6 5.65 7.6H17.35C17.5224 7.6 17.6877 7.53152 17.8096 7.40962C17.9315 7.28772 18 7.12239 18 6.95C18 6.77761 17.9315 6.61228 17.8096 6.49038C17.6877 6.36848 17.5224 6.3 17.35 6.3Z" fill="#FF0000"/>
</svg>
