<svg width="15" height="15" viewBox="0 0 15 15" fill="none" xmlns="http://www.w3.org/2000/svg">
<path d="M7.5 6.87477C8.41165 6.87477 9.28596 6.51262 9.9306 5.86799C10.5752 5.22335 10.9374 4.34904 10.9374 3.43739C10.9374 2.52573 10.5752 1.65142 9.9306 1.00679C9.28596 0.362152 8.41165 0 7.5 0C6.58835 0 5.71404 0.362152 5.0694 1.00679C4.42477 1.65142 4.06261 2.52573 4.06261 3.43739C4.06261 4.34904 4.42477 5.22335 5.0694 5.86799C5.71404 6.51262 6.58835 6.87477 7.5 6.87477ZM7.5 8.385C2.92977 8.385 0 10.907 0 12.135V14.428H15V12.135C15 10.65 12.2264 8.385 7.5 8.385Z" fill="#930027"/>
</svg>
