<svg width="15" height="15" viewBox="0 0 15 15" fill="none" xmlns="http://www.w3.org/2000/svg">
                  <path d="M12.8889 5.77778H8.44444V1.33333C8.44444 0.979711 8.30397 0.640573 8.05392 0.390524C7.80387 0.140476 7.46473 0 7.11111 0C6.75749 0 6.41835 0.140476 6.1683 0.390524C5.91825 0.640573 5.77778 0.979711 5.77778 1.33333V5.77778H1.33333C0.979711 5.77778 0.640573 5.91825 0.390524 6.1683C0.140476 6.41835 0 6.75749 0 7.11111C0 7.46473 0.140476 7.80387 0.390524 8.05392C0.640573 8.30397 0.979711 8.44444 1.33333 8.44444H5.77778V12.8889C5.77778 13.2425 5.91825 13.5816 6.1683 13.8317C6.41835 14.0817 6.75749 14.2222 7.11111 14.2222C7.46473 14.2222 7.80387 14.0817 8.05392 13.8317C8.30397 13.5816 8.44444 13.2425 8.44444 12.8889V8.44444H12.8889C13.2425 8.44444 13.5816 8.30397 13.8317 8.05392C14.0817 7.80387 14.2222 7.46473 14.2222 7.11111C14.2222 6.75749 14.0817 6.41835 13.8317 6.1683C13.5816 5.91825 13.2425 5.77778 12.8889 5.77778Z" fill="white" />
                </svg>