<svg width="20" height="20" viewBox="0 0 20 20" fill="none" xmlns="http://www.w3.org/2000/svg">
<path d="M20 10C20 15.5228 15.5228 20 10 20C4.47715 20 0 15.5228 0 10C0 4.47715 4.47715 0 10 0C15.5228 0 20 4.47715 20 10ZM1.82439 10C1.82439 14.5153 5.48474 18.1756 10 18.1756C14.5153 18.1756 18.1756 14.5153 18.1756 10C18.1756 5.48474 14.5153 1.82439 10 1.82439C5.48474 1.82439 1.82439 5.48474 1.82439 10Z" fill="white"/>
<path d="M11.364 15.4545C11.364 16.2076 10.7534 16.8182 10.0004 16.8182C9.24726 16.8182 8.63672 16.2076 8.63672 15.4545C8.63672 14.7014 9.24726 14.0909 10.0004 14.0909C10.7534 14.0909 11.364 14.7014 11.364 15.4545Z" fill="white"/>
<path d="M9.09109 9.99997V11.8182C9.09109 11.8182 9.09109 12.7272 10.0002 12.7272C10.9093 12.7272 10.9093 11.8182 10.9093 11.8182V9.99997C10.9093 9.99997 11.3449 9.87534 11.5119 9.80752C11.5119 9.80752 11.8155 9.69915 12.0281 9.53597C12.2407 9.37288 12.433 9.17906 12.6051 8.95479C12.7873 8.73043 12.929 8.47043 13.0302 8.17471C13.1314 7.879 13.182 7.63979 13.182 7.2727C13.182 6.66089 13.0454 6.03338 12.7721 5.57452C12.5089 5.10546 12.1344 4.74348 11.6485 4.48856C11.1627 4.22344 10.5959 4.09088 9.94809 4.09088C9.54327 4.09088 9.18391 4.14186 8.87018 4.24384C8.55636 4.33561 8.27809 4.46306 8.03513 4.62622C7.80233 4.77917 7.60495 4.95252 7.44301 5.14625C7.29119 5.3298 7.16973 5.50825 7.07863 5.68159C6.98754 5.85494 6.92681 6.00788 6.89644 6.14044C6.83571 6.33418 6.81041 6.49224 6.82053 6.6146C6.84077 6.73696 6.9015 6.83893 7.00272 6.9205C7.10394 7.00207 7.26082 7.08874 7.47337 7.18052C7.69605 7.2519 7.86812 7.27739 7.98958 7.257C8.12116 7.2366 8.22745 7.17542 8.30845 7.07345C8.30845 7.07345 8.74 6.45969 8.86145 6.33733C8.99309 6.20477 9.155 6.10281 9.34736 6.03143C9.53964 5.94985 9.75727 5.90906 10.0002 5.90906C10.5265 5.90906 10.9162 6.03653 11.1693 6.29145C11.4324 6.53617 11.5119 6.74205 11.5119 7.21111C11.5119 7.52721 11.4563 7.78214 11.3449 7.97587C11.2335 8.16961 11.0868 8.3277 10.9046 8.45006C10.9046 8.45006 10.6572 8.54461 10.4547 8.63634C10.2625 8.71788 9.90936 8.85279 9.72718 8.95479C9.55509 9.04652 9.45864 9.14297 9.34736 9.28579C9.236 9.42852 9.09109 9.75525 9.09109 9.99997Z" fill="white"/>
</svg>
    