<svg width="15" height="15" viewBox="0 0 15 15" fill="none" xmlns="http://www.w3.org/2000/svg">
<path d="M14.4 0H0.6C0.268125 0 0 0.268125 0 0.6V14.4C0 14.7319 0.268125 15 0.6 15H14.4C14.7319 15 15 14.7319 15 14.4V0.6C15 0.268125 14.7319 0 14.4 0ZM4.8 11.85C4.8 11.9325 4.7325 12 4.65 12H3.15C3.0675 12 3 11.9325 3 11.85V3.15C3 3.0675 3.0675 3 3.15 3H4.65C4.7325 3 4.8 3.0675 4.8 3.15V11.85ZM8.4 6.6C8.4 6.6825 8.3325 6.75 8.25 6.75H6.75C6.6675 6.75 6.6 6.6825 6.6 6.6V3.15C6.6 3.0675 6.6675 3 6.75 3H8.25C8.3325 3 8.4 3.0675 8.4 3.15V6.6ZM12 7.95C12 8.0325 11.9325 8.1 11.85 8.1H10.35C10.2675 8.1 10.2 8.0325 10.2 7.95V3.15C10.2 3.0675 10.2675 3 10.35 3H11.85C11.9325 3 12 3.0675 12 3.15V7.95Z" fill="#930027"/>
</svg>
