<svg width="36" height="36" viewBox="0 0 36 36" fill="none" xmlns="http://www.w3.org/2000/svg">
<circle opacity="0.1" cx="18" cy="18" r="18" fill="#930027"/>
<path fill-rule="evenodd" clip-rule="evenodd" d="M14.7222 12.7778C14.7222 11.7758 15.1202 10.815 15.8287 10.1065C16.5372 9.39801 17.4981 9 18.5 9C19.5019 9 20.4628 9.39801 21.1713 10.1065C21.8798 10.815 22.2778 11.7758 22.2778 12.7778C22.2778 13.7797 21.8798 14.7406 21.1713 15.4491C20.4628 16.1575 19.5019 16.5556 18.5 16.5556C17.4981 16.5556 16.5372 16.1575 15.8287 15.4491C15.1202 14.7406 14.7222 13.7797 14.7222 12.7778ZM14.7222 18.4444C13.4698 18.4444 12.2687 18.942 11.3831 19.8276C10.4975 20.7131 10 21.9143 10 23.1667C10 23.9181 10.2985 24.6388 10.8299 25.1701C11.3612 25.7015 12.0819 26 12.8333 26H24.1667C24.9181 26 25.6388 25.7015 26.1701 25.1701C26.7015 24.6388 27 23.9181 27 23.1667C27 21.9143 26.5025 20.7131 25.6169 19.8276C24.7313 18.942 23.5302 18.4444 22.2778 18.4444H14.7222Z" fill="#930027"/>
</svg>
