<svg width="20" height="20" viewBox="0 0 20 20" fill="none" xmlns="http://www.w3.org/2000/svg">
<mask id="mask0_342_2064" style="mask-type:luminance" maskUnits="userSpaceOnUse" x="0" y="0" width="20" height="20">
<path d="M20 0H0V20H20V0Z" fill="white"/>
</mask>
<g mask="url(#mask0_342_2064)">
<path fill-rule="evenodd" clip-rule="evenodd" d="M7.49935 0C4.96804 0 2.91602 2.05203 2.91602 4.58333C2.91602 7.11464 4.96804 9.16667 7.49935 9.16667C10.0307 9.16667 12.0827 7.11464 12.0827 4.58333C12.0827 2.05203 10.0307 0 7.49935 0ZM4.58268 4.58333C4.58268 2.9725 5.88852 1.66667 7.49935 1.66667C9.11018 1.66667 10.416 2.9725 10.416 4.58333C10.416 6.19417 9.11018 7.5 7.49935 7.5C5.88852 7.5 4.58268 6.19417 4.58268 4.58333Z" fill="white"/>
<path d="M12.9173 0C12.4571 0 12.084 0.373096 12.084 0.833333C12.084 1.29357 12.4571 1.66667 12.9173 1.66667C14.5282 1.66667 15.834 2.9725 15.834 4.58333C15.834 6.19417 14.5282 7.5 12.9173 7.5C12.4571 7.5 12.084 7.87309 12.084 8.33333C12.084 8.79358 12.4571 9.16667 12.9173 9.16667C15.4487 9.16667 17.5007 7.11464 17.5007 4.58333C17.5007 2.05203 15.4487 0 12.9173 0Z" fill="white"/>
<path d="M15.9039 11.6798C16.0882 11.2581 16.5794 11.0656 17.0012 11.2498C18.7654 12.0206 20.0009 13.7818 20.0009 15.8334V17.5001C20.0009 17.9603 19.6278 18.3334 19.1675 18.3334C18.7073 18.3334 18.3342 17.9603 18.3342 17.5001V15.8334C18.3342 14.4678 17.5129 13.2922 16.3339 12.7771C15.9121 12.5928 15.7196 12.1015 15.9039 11.6798Z" fill="white"/>
<path d="M5 10.8334C2.23857 10.8334 0 13.072 0 15.8334V17.5C0 17.9603 0.373096 18.3334 0.833333 18.3334C1.29357 18.3334 1.66667 17.9603 1.66667 17.5V15.8334C1.66667 13.9925 3.15905 12.5 5 12.5H10C11.8409 12.5 13.3333 13.9925 13.3333 15.8334V17.5C13.3333 17.9603 13.7064 18.3334 14.1667 18.3334C14.6269 18.3334 15 17.9603 15 17.5V15.8334C15 13.072 12.7614 10.8334 10 10.8334H5Z" fill="white"/>
</g>
</svg>
